<?xml version="1.0" encoding="utf-8" standalone="no"?>
<!DOCTYPE svg PUBLIC "-//W3C//DTD SVG 1.1//EN"
  "http://www.w3.org/Graphics/SVG/1.1/DTD/svg11.dtd">
<svg xmlns:xlink="http://www.w3.org/1999/xlink" width="460.8pt" height="345.6pt" viewBox="0 0 460.8 345.6" xmlns="http://www.w3.org/2000/svg" version="1.1">
 <metadata>
  <rdf:RDF xmlns:dc="http://purl.org/dc/elements/1.1/" xmlns:cc="http://creativecommons.org/ns#" xmlns:rdf="http://www.w3.org/1999/02/22-rdf-syntax-ns#">
   <cc:Work>
    <dc:type rdf:resource="http://purl.org/dc/dcmitype/StillImage"/>
    <dc:date>2022-02-21T13:10:52.617634</dc:date>
    <dc:format>image/svg+xml</dc:format>
    <dc:creator>
     <cc:Agent>
      <dc:title>Matplotlib v3.5.1, https://matplotlib.org/</dc:title>
     </cc:Agent>
    </dc:creator>
   </cc:Work>
  </rdf:RDF>
 </metadata>
 <defs>
  <style type="text/css">*{stroke-linejoin: round; stroke-linecap: butt}</style>
 </defs>
 <g id="figure_1">
  <g id="patch_1">
   <path d="M 0 345.6 
L 460.8 345.6 
L 460.8 0 
L 0 0 
z
" style="fill: #ffffff"/>
  </g>
  <g id="patch_2">
   <path d="M 57.6 255.691636 
L 219.927273 255.691636 
L 219.927273 93.364364 
L 57.6 93.364364 
z
" style="fill: #ffffff"/>
  </g>
  <g id="pane3d_1">
   <g id="patch_3">
    <path d="M 69.856829 215.666933 
L 123.462595 170.733516 
L 122.717424 105.931497 
L 66.546345 146.922592 
" style="fill: #f2f2f2; opacity: 0.5; stroke: #f2f2f2; stroke-linejoin: miter"/>
   </g>
  </g>
  <g id="pane3d_2">
   <g id="patch_4">
    <path d="M 123.462595 170.733516 
L 209.480724 195.735591 
L 212.550408 128.70154 
L 122.717424 105.931497 
" style="fill: #e6e6e6; opacity: 0.5; stroke: #e6e6e6; stroke-linejoin: miter"/>
   </g>
  </g>
  <g id="pane3d_3">
   <g id="patch_5">
    <path d="M 69.856829 215.666933 
L 161.040247 245.447437 
L 209.480724 195.735591 
L 123.462595 170.733516 
" style="fill: #ececec; opacity: 0.5; stroke: #ececec; stroke-linejoin: miter"/>
   </g>
  </g>
  <g id="axis3d_1">
   <g id="line2d_1">
    <path d="M 69.856829 215.666933 
L 161.040247 245.447437 
" style="fill: none; stroke: #000000; stroke-width: 0.8; stroke-linecap: square"/>
   </g>
   <g id="Line3DCollection_1">
    <path d="M 84.931355 220.590273 
L 137.735674 174.882137 
L 137.597277 109.703106 
" style="fill: none; stroke: #b0b0b0; stroke-width: 0.8"/>
    <path d="M 104.363083 226.936676 
L 156.103544 180.220951 
L 156.761336 114.560636 
" style="fill: none; stroke: #b0b0b0; stroke-width: 0.8"/>
    <path d="M 124.244478 233.429939 
L 174.860705 185.672918 
L 176.349394 119.525638 
" style="fill: none; stroke: #b0b0b0; stroke-width: 0.8"/>
    <path d="M 144.59133 240.075221 
L 194.019665 191.241671 
L 196.375681 124.601718 
" style="fill: none; stroke: #b0b0b0; stroke-width: 0.8"/>
   </g>
   <g id="xtick_1">
    <g id="line2d_2">
     <path d="M 85.391383 220.192067 
L 84.009313 221.388405 
" style="fill: none; stroke: #000000; stroke-width: 0.8; stroke-linecap: square"/>
    </g>
    <g id="text_1">
     <!-- 2 -->
     <g transform="translate(74.218863 244.045608)scale(0.1 -0.1)">
      <defs>
       <path id="DejaVuSans-32" d="M 1228 531 
L 3431 531 
L 3431 0 
L 469 0 
L 469 531 
Q 828 903 1448 1529 
Q 2069 2156 2228 2338 
Q 2531 2678 2651 2914 
Q 2772 3150 2772 3378 
Q 2772 3750 2511 3984 
Q 2250 4219 1831 4219 
Q 1534 4219 1204 4116 
Q 875 4013 500 3803 
L 500 4441 
Q 881 4594 1212 4672 
Q 1544 4750 1819 4750 
Q 2544 4750 2975 4387 
Q 3406 4025 3406 3419 
Q 3406 3131 3298 2873 
Q 3191 2616 2906 2266 
Q 2828 2175 2409 1742 
Q 1991 1309 1228 531 
z
" transform="scale(0.015625)"/>
      </defs>
      <use xlink:href="#DejaVuSans-32"/>
     </g>
    </g>
   </g>
   <g id="xtick_2">
    <g id="line2d_3">
     <path d="M 104.814264 226.529311 
L 103.458752 227.753184 
" style="fill: none; stroke: #000000; stroke-width: 0.8; stroke-linecap: square"/>
    </g>
    <g id="text_2">
     <!-- 4 -->
     <g transform="translate(93.684659 250.613945)scale(0.1 -0.1)">
      <defs>
       <path id="DejaVuSans-34" d="M 2419 4116 
L 825 1625 
L 2419 1625 
L 2419 4116 
z
M 2253 4666 
L 3047 4666 
L 3047 1625 
L 3713 1625 
L 3713 1100 
L 3047 1100 
L 3047 0 
L 2419 0 
L 2419 1100 
L 313 1100 
L 313 1709 
L 2253 4666 
z
" transform="scale(0.015625)"/>
      </defs>
      <use xlink:href="#DejaVuSans-34"/>
     </g>
    </g>
   </g>
   <g id="xtick_3">
    <g id="line2d_4">
     <path d="M 124.686277 233.013097 
L 123.358929 234.265465 
" style="fill: none; stroke: #000000; stroke-width: 0.8; stroke-linecap: square"/>
    </g>
    <g id="text_3">
     <!-- 6 -->
     <g transform="translate(113.603742 257.335235)scale(0.1 -0.1)">
      <defs>
       <path id="DejaVuSans-36" d="M 2113 2584 
Q 1688 2584 1439 2293 
Q 1191 2003 1191 1497 
Q 1191 994 1439 701 
Q 1688 409 2113 409 
Q 2538 409 2786 701 
Q 3034 994 3034 1497 
Q 3034 2003 2786 2293 
Q 2538 2584 2113 2584 
z
M 3366 4563 
L 3366 3988 
Q 3128 4100 2886 4159 
Q 2644 4219 2406 4219 
Q 1781 4219 1451 3797 
Q 1122 3375 1075 2522 
Q 1259 2794 1537 2939 
Q 1816 3084 2150 3084 
Q 2853 3084 3261 2657 
Q 3669 2231 3669 1497 
Q 3669 778 3244 343 
Q 2819 -91 2113 -91 
Q 1303 -91 875 529 
Q 447 1150 447 2328 
Q 447 3434 972 4092 
Q 1497 4750 2381 4750 
Q 2619 4750 2861 4703 
Q 3103 4656 3366 4563 
z
" transform="scale(0.015625)"/>
      </defs>
      <use xlink:href="#DejaVuSans-36"/>
     </g>
    </g>
   </g>
   <g id="xtick_4">
    <g id="line2d_5">
     <path d="M 145.023182 239.648566 
L 143.725698 240.930437 
" style="fill: none; stroke: #000000; stroke-width: 0.8; stroke-linecap: square"/>
    </g>
    <g id="text_4">
     <!-- 8 -->
     <g transform="translate(133.992131 264.214883)scale(0.1 -0.1)">
      <defs>
       <path id="DejaVuSans-38" d="M 2034 2216 
Q 1584 2216 1326 1975 
Q 1069 1734 1069 1313 
Q 1069 891 1326 650 
Q 1584 409 2034 409 
Q 2484 409 2743 651 
Q 3003 894 3003 1313 
Q 3003 1734 2745 1975 
Q 2488 2216 2034 2216 
z
M 1403 2484 
Q 997 2584 770 2862 
Q 544 3141 544 3541 
Q 544 4100 942 4425 
Q 1341 4750 2034 4750 
Q 2731 4750 3128 4425 
Q 3525 4100 3525 3541 
Q 3525 3141 3298 2862 
Q 3072 2584 2669 2484 
Q 3125 2378 3379 2068 
Q 3634 1759 3634 1313 
Q 3634 634 3220 271 
Q 2806 -91 2034 -91 
Q 1263 -91 848 271 
Q 434 634 434 1313 
Q 434 1759 690 2068 
Q 947 2378 1403 2484 
z
M 1172 3481 
Q 1172 3119 1398 2916 
Q 1625 2713 2034 2713 
Q 2441 2713 2670 2916 
Q 2900 3119 2900 3481 
Q 2900 3844 2670 4047 
Q 2441 4250 2034 4250 
Q 1625 4250 1398 4047 
Q 1172 3844 1172 3481 
z
" transform="scale(0.015625)"/>
      </defs>
      <use xlink:href="#DejaVuSans-38"/>
     </g>
    </g>
   </g>
  </g>
  <g id="axis3d_2">
   <g id="line2d_6">
    <path d="M 209.480724 195.735591 
L 161.040247 245.447437 
" style="fill: none; stroke: #000000; stroke-width: 0.8; stroke-linecap: square"/>
   </g>
   <g id="Line3DCollection_2">
    <path d="M 81.585638 135.947601 
L 84.169411 203.669842 
L 174.015611 232.131521 
" style="fill: none; stroke: #b0b0b0; stroke-width: 0.8"/>
    <path d="M 99.356755 122.979049 
L 101.119336 189.462079 
L 189.342361 216.402505 
" style="fill: none; stroke: #b0b0b0; stroke-width: 0.8"/>
    <path d="M 116.173907 110.706658 
L 117.196938 175.985515 
L 203.840845 201.523494 
" style="fill: none; stroke: #b0b0b0; stroke-width: 0.8"/>
   </g>
   <g id="xtick_5">
    <g id="line2d_7">
     <path d="M 173.259132 231.891882 
L 175.530493 232.611409 
" style="fill: none; stroke: #000000; stroke-width: 0.8; stroke-linecap: square"/>
    </g>
    <g id="text_5">
     <!-- 5 -->
     <g transform="translate(183.508166 252.918497)scale(0.1 -0.1)">
      <defs>
       <path id="DejaVuSans-35" d="M 691 4666 
L 3169 4666 
L 3169 4134 
L 1269 4134 
L 1269 2991 
Q 1406 3038 1543 3061 
Q 1681 3084 1819 3084 
Q 2600 3084 3056 2656 
Q 3513 2228 3513 1497 
Q 3513 744 3044 326 
Q 2575 -91 1722 -91 
Q 1428 -91 1123 -41 
Q 819 9 494 109 
L 494 744 
Q 775 591 1075 516 
Q 1375 441 1709 441 
Q 2250 441 2565 725 
Q 2881 1009 2881 1497 
Q 2881 1984 2565 2268 
Q 2250 2553 1709 2553 
Q 1456 2553 1204 2497 
Q 953 2441 691 2322 
L 691 4666 
z
" transform="scale(0.015625)"/>
      </defs>
      <use xlink:href="#DejaVuSans-35"/>
     </g>
    </g>
   </g>
   <g id="xtick_6">
    <g id="line2d_8">
     <path d="M 188.600576 216.175989 
L 190.827764 216.856099 
" style="fill: none; stroke: #000000; stroke-width: 0.8; stroke-linecap: square"/>
    </g>
    <g id="text_6">
     <!-- 10 -->
     <g transform="translate(195.315757 236.808125)scale(0.1 -0.1)">
      <defs>
       <path id="DejaVuSans-31" d="M 794 531 
L 1825 531 
L 1825 4091 
L 703 3866 
L 703 4441 
L 1819 4666 
L 2450 4666 
L 2450 531 
L 3481 531 
L 3481 0 
L 794 0 
L 794 531 
z
" transform="scale(0.015625)"/>
       <path id="DejaVuSans-30" d="M 2034 4250 
Q 1547 4250 1301 3770 
Q 1056 3291 1056 2328 
Q 1056 1369 1301 889 
Q 1547 409 2034 409 
Q 2525 409 2770 889 
Q 3016 1369 3016 2328 
Q 3016 3291 2770 3770 
Q 2525 4250 2034 4250 
z
M 2034 4750 
Q 2819 4750 3233 4129 
Q 3647 3509 3647 2328 
Q 3647 1150 3233 529 
Q 2819 -91 2034 -91 
Q 1250 -91 836 529 
Q 422 1150 422 2328 
Q 422 3509 836 4129 
Q 1250 4750 2034 4750 
z
" transform="scale(0.015625)"/>
      </defs>
      <use xlink:href="#DejaVuSans-31"/>
      <use xlink:href="#DejaVuSans-30" x="63.623047"/>
     </g>
    </g>
   </g>
   <g id="xtick_7">
    <g id="line2d_9">
     <path d="M 203.113293 201.30905 
L 205.2977 201.952897 
" style="fill: none; stroke: #000000; stroke-width: 0.8; stroke-linecap: square"/>
    </g>
    <g id="text_7">
     <!-- 15 -->
     <g transform="translate(209.493854 221.569161)scale(0.1 -0.1)">
      <use xlink:href="#DejaVuSans-31"/>
      <use xlink:href="#DejaVuSans-35" x="63.623047"/>
     </g>
    </g>
   </g>
  </g>
  <g id="axis3d_3">
   <g id="line2d_10">
    <path d="M 209.480724 195.735591 
L 212.550408 128.70154 
" style="fill: none; stroke: #000000; stroke-width: 0.8; stroke-linecap: square"/>
   </g>
   <g id="Line3DCollection_3">
    <path d="M 209.539536 194.451292 
L 123.448289 169.489408 
L 69.793508 214.352044 
" style="fill: none; stroke: #b0b0b0; stroke-width: 0.8"/>
    <path d="M 210.358773 176.561251 
L 123.249126 152.169675 
L 68.911041 196.027047 
" style="fill: none; stroke: #b0b0b0; stroke-width: 0.8"/>
    <path d="M 211.197819 158.238639 
L 123.04538 134.451386 
L 68.006413 177.241865 
" style="fill: none; stroke: #b0b0b0; stroke-width: 0.8"/>
    <path d="M 212.0574 139.467574 
L 122.836891 116.320626 
L 67.078779 157.978943 
" style="fill: none; stroke: #b0b0b0; stroke-width: 0.8"/>
   </g>
   <g id="xtick_8">
    <g id="line2d_11">
     <path d="M 208.816965 194.241785 
L 210.9864 194.870806 
" style="fill: none; stroke: #000000; stroke-width: 0.8; stroke-linecap: square"/>
    </g>
    <g id="text_8">
     <!-- 0 -->
     <g transform="translate(224.587278 199.453802)scale(0.1 -0.1)">
      <use xlink:href="#DejaVuSans-30"/>
     </g>
    </g>
   </g>
   <g id="xtick_9">
    <g id="line2d_12">
     <path d="M 209.627245 176.356416 
L 211.823591 176.971415 
" style="fill: none; stroke: #000000; stroke-width: 0.8; stroke-linecap: square"/>
    </g>
    <g id="text_9">
     <!-- 200 -->
     <g transform="translate(219.256614 181.621789)scale(0.1 -0.1)">
      <use xlink:href="#DejaVuSans-32"/>
      <use xlink:href="#DejaVuSans-30" x="63.623047"/>
      <use xlink:href="#DejaVuSans-30" x="127.246094"/>
     </g>
    </g>
   </g>
   <g id="xtick_10">
    <g id="line2d_13">
     <path d="M 210.45711 158.038764 
L 212.681043 158.638876 
" style="fill: none; stroke: #000000; stroke-width: 0.8; stroke-linecap: square"/>
    </g>
    <g id="text_10">
     <!-- 400 -->
     <g transform="translate(220.313273 163.360775)scale(0.1 -0.1)">
      <use xlink:href="#DejaVuSans-34"/>
      <use xlink:href="#DejaVuSans-30" x="63.623047"/>
      <use xlink:href="#DejaVuSans-30" x="127.246094"/>
     </g>
    </g>
   </g>
   <g id="xtick_11">
    <g id="line2d_14">
     <path d="M 211.307277 139.272966 
L 213.559497 139.857271 
" style="fill: none; stroke: #000000; stroke-width: 0.8; stroke-linecap: square"/>
    </g>
    <g id="text_11">
     <!-- 600 -->
     <g transform="translate(221.395664 144.655091)scale(0.1 -0.1)">
      <use xlink:href="#DejaVuSans-36"/>
      <use xlink:href="#DejaVuSans-30" x="63.623047"/>
      <use xlink:href="#DejaVuSans-30" x="127.246094"/>
     </g>
    </g>
   </g>
  </g>
  <g id="axes_1">
   <g id="Poly3DCollection_1">
    <path d="M 119.314507 178.93402 
L 125.550236 173.658552 
L 134.630727 176.309994 
L 128.456918 181.640974 
z
" clip-path="url(#pcc95c365cd)" style="fill: #113f60"/>
    <path d="M 119.314507 178.93402 
L 125.550236 173.658552 
L 134.630727 176.309994 
L 128.456918 181.640974 
z
" clip-path="url(#pcc95c365cd)" style="fill: #113f60"/>
    <path d="M 119.314507 178.93402 
L 125.550236 173.658552 
L 134.630727 176.309994 
L 128.456918 181.640974 
z
" clip-path="url(#pcc95c365cd)" style="fill: #113f60"/>
    <path d="M 128.456918 181.640974 
L 134.630727 176.309994 
L 143.80652 178.989264 
L 137.696288 184.376635 
z
" clip-path="url(#pcc95c365cd)" style="fill: #113f60"/>
    <path d="M 112.947884 184.320226 
L 119.314507 178.93402 
L 128.456918 181.640974 
L 122.152824 187.084452 
z
" clip-path="url(#pcc95c365cd)" style="fill: #113f60"/>
    <path d="M 112.947884 184.320226 
L 119.314507 178.93402 
L 128.456918 181.640974 
L 122.152824 187.084452 
z
" clip-path="url(#pcc95c365cd)" style="fill: #113f60"/>
    <path d="M 112.947884 184.320226 
L 119.314507 178.93402 
L 128.456918 181.640974 
L 122.152824 187.084452 
z
" clip-path="url(#pcc95c365cd)" style="fill: #113f60"/>
    <path d="M 137.696288 184.376635 
L 143.80652 178.989264 
L 153.079123 181.696801 
L 147.034167 187.141464 
z
" clip-path="url(#pcc95c365cd)" style="fill: #113f60"/>
    <path d="M 125.550236 173.658552 
L 124.961621 115.646886 
L 134.387716 118.085707 
L 134.630727 176.309994 
z
" clip-path="url(#pcc95c365cd)" style="fill: #0d324b"/>
    <path d="M 125.550236 173.658552 
L 124.922921 111.832832 
L 134.371736 114.256861 
L 134.630727 176.309994 
z
" clip-path="url(#pcc95c365cd)" style="fill: #0d324b"/>
    <path d="M 125.550236 173.658552 
L 124.915348 111.086473 
L 134.368608 113.507596 
L 134.630727 176.309994 
z
" clip-path="url(#pcc95c365cd)" style="fill: #0d324b"/>
    <path d="M 122.152824 187.084452 
L 128.456918 181.640974 
L 137.696288 184.376635 
L 131.456421 189.878304 
z
" clip-path="url(#pcc95c365cd)" style="fill: #113f60"/>
    <path d="M 147.034167 187.141464 
L 153.079123 181.696801 
L 162.450077 184.433056 
L 156.47214 189.935929 
z
" clip-path="url(#pcc95c365cd)" style="fill: #113f60"/>
    <path d="M 119.314507 178.93402 
L 118.478739 120.50027 
L 124.961621 115.646886 
L 125.550236 173.658552 
z
" clip-path="url(#pcc95c365cd)" style="fill: #1b699f"/>
    <path d="M 119.314507 178.93402 
L 118.423767 116.65684 
L 124.922921 111.832832 
L 125.550236 173.658552 
z
" clip-path="url(#pcc95c365cd)" style="fill: #1b699f"/>
    <path d="M 119.314507 178.93402 
L 118.41301 115.904709 
L 124.915348 111.086473 
L 125.550236 173.658552 
z
" clip-path="url(#pcc95c365cd)" style="fill: #1b699f"/>
    <path d="M 134.630727 176.309994 
L 134.393155 119.388866 
L 143.914098 121.859316 
L 143.80652 178.989264 
z
" clip-path="url(#pcc95c365cd)" style="fill: #0d324b"/>
    <path d="M 119.314507 178.93402 
L 118.638102 131.642333 
L 128.064117 134.177058 
L 128.456918 181.640974 
z
" clip-path="url(#pcc95c365cd)" style="fill: #0d324b"/>
    <path d="M 119.314507 178.93402 
L 118.636784 131.550135 
L 128.063351 134.084509 
L 128.456918 181.640974 
z
" clip-path="url(#pcc95c365cd)" style="fill: #0d324b"/>
    <path d="M 106.446201 189.820692 
L 112.947884 184.320226 
L 122.152824 187.084452 
L 115.714276 192.644028 
z
" clip-path="url(#pcc95c365cd)" style="fill: #113f60"/>
    <path d="M 106.446201 189.820692 
L 112.947884 184.320226 
L 122.152824 187.084452 
L 115.714276 192.644028 
z
" clip-path="url(#pcc95c365cd)" style="fill: #113f60"/>
    <path d="M 106.446201 189.820692 
L 112.947884 184.320226 
L 122.152824 187.084452 
L 115.714276 192.644028 
z
" clip-path="url(#pcc95c365cd)" style="fill: #113f60"/>
    <path d="M 119.314507 178.93402 
L 118.626228 130.812161 
L 128.057221 133.343723 
L 128.456918 181.640974 
z
" clip-path="url(#pcc95c365cd)" style="fill: #0d324b"/>
    <path d="M 131.456421 189.878304 
L 137.696288 184.376635 
L 147.034167 187.141464 
L 140.860271 192.702262 
z
" clip-path="url(#pcc95c365cd)" style="fill: #113f60"/>
    <path d="M 156.47214 189.935929 
L 162.450077 184.433056 
L 171.920953 187.198488 
L 166.011825 192.76051 
z
" clip-path="url(#pcc95c365cd)" style="fill: #113f60"/>
    <path d="M 128.456918 181.640974 
L 127.982421 124.305314 
L 134.393155 119.388866 
L 134.630727 176.309994 
z
" clip-path="url(#pcc95c365cd)" style="fill: #1b699f"/>
    <path d="M 128.456918 181.640974 
L 134.630727 176.309994 
L 134.387716 118.085707 
L 127.971553 122.992139 
z
" clip-path="url(#pcc95c365cd)" style="fill: #0d324b"/>
    <path d="M 128.456918 181.640974 
L 134.630727 176.309994 
L 134.371736 114.256861 
L 127.939622 119.133724 
z
" clip-path="url(#pcc95c365cd)" style="fill: #0d324b"/>
    <path d="M 128.456918 181.640974 
L 134.630727 176.309994 
L 134.368608 113.507596 
L 127.933373 118.378649 
z
" clip-path="url(#pcc95c365cd)" style="fill: #0d324b"/>
    <path d="M 112.947884 184.320226 
L 112.063024 136.686667 
L 118.638102 131.642333 
L 119.314507 178.93402 
z
" clip-path="url(#pcc95c365cd)" style="fill: #1b699f"/>
    <path d="M 112.947884 184.320226 
L 112.061298 136.593773 
L 118.636784 131.550135 
L 119.314507 178.93402 
z
" clip-path="url(#pcc95c365cd)" style="fill: #1b699f"/>
    <path d="M 112.947884 184.320226 
L 112.047485 135.850215 
L 118.626228 130.812161 
L 119.314507 178.93402 
z
" clip-path="url(#pcc95c365cd)" style="fill: #1b699f"/>
    <path d="M 128.456918 181.640974 
L 128.111427 139.893686 
L 137.605668 142.477844 
L 137.696288 184.376635 
z
" clip-path="url(#pcc95c365cd)" style="fill: #0d324b"/>
    <path d="M 119.314507 178.93402 
L 128.456918 181.640974 
L 127.971553 122.992139 
L 118.478739 120.50027 
z
" clip-path="url(#pcc95c365cd)" style="fill: #1b699f"/>
    <path d="M 112.947884 184.320226 
L 112.410798 155.407983 
L 121.790286 158.068417 
L 122.152824 187.084452 
z
" clip-path="url(#pcc95c365cd)" style="fill: #0d324b"/>
    <path d="M 112.947884 184.320226 
L 112.410798 155.407983 
L 121.790286 158.068417 
L 122.152824 187.084452 
z
" clip-path="url(#pcc95c365cd)" style="fill: #0d324b"/>
    <path d="M 112.947884 184.320226 
L 112.410798 155.407983 
L 121.790286 158.068417 
L 122.152824 187.084452 
z
" clip-path="url(#pcc95c365cd)" style="fill: #0d324b"/>
    <path d="M 143.80652 178.989264 
L 143.922031 117.646606 
L 153.573247 120.127719 
L 153.079123 181.696801 
z
" clip-path="url(#pcc95c365cd)" style="fill: #0d324b"/>
    <path d="M 119.314507 178.93402 
L 128.456918 181.640974 
L 127.939622 119.133724 
L 118.423767 116.65684 
z
" clip-path="url(#pcc95c365cd)" style="fill: #1b699f"/>
    <path d="M 119.314507 178.93402 
L 128.456918 181.640974 
L 127.933373 118.378649 
L 118.41301 115.904709 
z
" clip-path="url(#pcc95c365cd)" style="fill: #1b699f"/>
    <path d="M 115.714276 192.644028 
L 122.152824 187.084452 
L 131.456421 189.878304 
L 125.08275 195.497948 
z
" clip-path="url(#pcc95c365cd)" style="fill: #113f60"/>
    <path d="M 140.860271 192.702262 
L 147.034167 187.141464 
L 156.47214 189.935929 
L 150.366002 195.556815 
z
" clip-path="url(#pcc95c365cd)" style="fill: #113f60"/>
    <path d="M 166.011825 192.76051 
L 171.920953 187.198488 
L 181.493361 189.993566 
L 175.654874 195.615695 
z
" clip-path="url(#pcc95c365cd)" style="fill: #113f60"/>
    <path d="M 137.696288 184.376635 
L 143.80652 178.989264 
L 143.914098 121.859316 
L 137.571824 126.829751 
z
" clip-path="url(#pcc95c365cd)" style="fill: #0d324b"/>
    <path d="M 122.152824 187.084452 
L 121.627459 145.036446 
L 128.111427 139.893686 
L 128.456918 181.640974 
z
" clip-path="url(#pcc95c365cd)" style="fill: #1b699f"/>
    <path d="M 106.446201 189.820692 
L 105.77729 160.702452 
L 112.410798 155.407983 
L 112.947884 184.320226 
z
" clip-path="url(#pcc95c365cd)" style="fill: #1b699f"/>
    <path d="M 106.446201 189.820692 
L 105.77729 160.702452 
L 112.410798 155.407983 
L 112.947884 184.320226 
z
" clip-path="url(#pcc95c365cd)" style="fill: #1b699f"/>
    <path d="M 106.446201 189.820692 
L 105.77729 160.702452 
L 112.410798 155.407983 
L 112.947884 184.320226 
z
" clip-path="url(#pcc95c365cd)" style="fill: #1b699f"/>
    <path d="M 137.696288 184.376635 
L 137.562643 122.58449 
L 143.922031 117.646606 
L 143.80652 178.989264 
z
" clip-path="url(#pcc95c365cd)" style="fill: #1b699f"/>
    <path d="M 122.152824 187.084452 
L 128.456918 181.640974 
L 128.064117 134.177058 
L 121.555495 139.276729 
z
" clip-path="url(#pcc95c365cd)" style="fill: #0d324b"/>
    <path d="M 122.152824 187.084452 
L 128.456918 181.640974 
L 128.063351 134.084509 
L 121.55433 139.183479 
z
" clip-path="url(#pcc95c365cd)" style="fill: #0d324b"/>
    <path d="M 122.152824 187.084452 
L 128.456918 181.640974 
L 128.057221 133.343723 
L 121.545004 138.437074 
z
" clip-path="url(#pcc95c365cd)" style="fill: #0d324b"/>
    <path d="M 128.456918 181.640974 
L 137.696288 184.376635 
L 137.571824 126.829751 
L 127.982421 124.305314 
z
" clip-path="url(#pcc95c365cd)" style="fill: #1b699f"/>
    <path d="M 122.152824 187.084452 
L 121.790286 158.068417 
L 131.27225 160.757918 
L 131.456421 189.878304 
z
" clip-path="url(#pcc95c365cd)" style="fill: #0d324b"/>
    <path d="M 153.079123 181.696801 
L 153.583844 118.807341 
L 163.349922 121.310672 
L 162.450077 184.433056 
z
" clip-path="url(#pcc95c365cd)" style="fill: #0d324b"/>
    <path d="M 112.947884 184.320226 
L 122.152824 187.084452 
L 121.555495 139.276729 
L 112.063024 136.686667 
z
" clip-path="url(#pcc95c365cd)" style="fill: #1b699f"/>
    <path d="M 112.947884 184.320226 
L 122.152824 187.084452 
L 121.55433 139.183479 
L 112.061298 136.593773 
z
" clip-path="url(#pcc95c365cd)" style="fill: #1b699f"/>
    <path d="M 99.805116 195.439094 
L 106.446201 189.820692 
L 115.714276 192.644028 
L 109.136928 198.323456 
z
" clip-path="url(#pcc95c365cd)" style="fill: #113f60"/>
    <path d="M 99.805116 195.439094 
L 106.446201 189.820692 
L 115.714276 192.644028 
L 109.136928 198.323456 
z
" clip-path="url(#pcc95c365cd)" style="fill: #113f60"/>
    <path d="M 99.805116 195.439094 
L 106.446201 189.820692 
L 115.714276 192.644028 
L 109.136928 198.323456 
z
" clip-path="url(#pcc95c365cd)" style="fill: #113f60"/>
    <path d="M 137.696288 184.376635 
L 137.592453 136.367839 
L 147.228731 138.957061 
L 147.034167 187.141464 
z
" clip-path="url(#pcc95c365cd)" style="fill: #0d324b"/>
    <path d="M 112.947884 184.320226 
L 122.152824 187.084452 
L 121.545004 138.437074 
L 112.047485 135.850215 
z
" clip-path="url(#pcc95c365cd)" style="fill: #1b699f"/>
    <path d="M 125.08275 195.497948 
L 131.456421 189.878304 
L 140.860271 192.702262 
L 134.553264 198.382953 
z
" clip-path="url(#pcc95c365cd)" style="fill: #113f60"/>
    <path d="M 150.366002 195.556815 
L 156.47214 189.935929 
L 166.011825 192.76051 
L 159.97528 198.442463 
z
" clip-path="url(#pcc95c365cd)" style="fill: #113f60"/>
    <path d="M 175.654874 195.615695 
L 181.493361 189.993566 
L 191.168939 192.81877 
L 185.402977 198.501986 
z
" clip-path="url(#pcc95c365cd)" style="fill: #113f60"/>
    <path d="M 131.456421 189.878304 
L 137.696288 184.376635 
L 137.605668 142.477844 
L 131.189521 147.677121 
z
" clip-path="url(#pcc95c365cd)" style="fill: #0d324b"/>
    <path d="M 106.446201 189.820692 
L 106.021064 171.314152 
L 115.401615 174.071523 
L 115.714276 192.644028 
z
" clip-path="url(#pcc95c365cd)" style="fill: #0d324b"/>
    <path d="M 106.446201 189.820692 
L 106.021064 171.314152 
L 115.401615 174.071523 
L 115.714276 192.644028 
z
" clip-path="url(#pcc95c365cd)" style="fill: #0d324b"/>
    <path d="M 115.714276 192.644028 
L 122.152824 187.084452 
L 121.790286 158.068417 
L 115.222316 163.420888 
z
" clip-path="url(#pcc95c365cd)" style="fill: #0d324b"/>
    <path d="M 115.714276 192.644028 
L 122.152824 187.084452 
L 121.790286 158.068417 
L 115.222316 163.420888 
z
" clip-path="url(#pcc95c365cd)" style="fill: #0d324b"/>
    <path d="M 115.714276 192.644028 
L 115.222316 163.420888 
L 121.790286 158.068417 
L 122.152824 187.084452 
z
" clip-path="url(#pcc95c365cd)" style="fill: #1b699f"/>
    <path d="M 115.714276 192.644028 
L 122.152824 187.084452 
L 121.790286 158.068417 
L 115.222316 163.420888 
z
" clip-path="url(#pcc95c365cd)" style="fill: #0d324b"/>
    <path d="M 147.034167 187.141464 
L 153.079123 181.696801 
L 153.573247 120.127719 
L 147.284602 125.120273 
z
" clip-path="url(#pcc95c365cd)" style="fill: #0d324b"/>
    <path d="M 147.034167 187.141464 
L 147.289975 123.789614 
L 153.583844 118.807341 
L 153.079123 181.696801 
z
" clip-path="url(#pcc95c365cd)" style="fill: #1b699f"/>
    <path d="M 106.446201 189.820692 
L 105.91522 166.706675 
L 115.323767 169.44724 
L 115.714276 192.644028 
z
" clip-path="url(#pcc95c365cd)" style="fill: #0d324b"/>
    <path d="M 131.456421 189.878304 
L 131.150587 141.520939 
L 137.592453 136.367839 
L 137.696288 184.376635 
z
" clip-path="url(#pcc95c365cd)" style="fill: #1b699f"/>
    <path d="M 122.152824 187.084452 
L 131.456421 189.878304 
L 131.189521 147.677121 
L 121.627459 145.036446 
z
" clip-path="url(#pcc95c365cd)" style="fill: #1b699f"/>
    <path d="M 147.034167 187.141464 
L 147.202844 145.367958 
L 156.90516 148.010281 
L 156.47214 189.935929 
z
" clip-path="url(#pcc95c365cd)" style="fill: #0d324b"/>
    <path d="M 99.805116 195.439094 
L 99.292666 176.801647 
L 106.021064 171.314152 
L 106.446201 189.820692 
z
" clip-path="url(#pcc95c365cd)" style="fill: #1b699f"/>
    <path d="M 99.805116 195.439094 
L 99.292666 176.801647 
L 106.021064 171.314152 
L 106.446201 189.820692 
z
" clip-path="url(#pcc95c365cd)" style="fill: #1b699f"/>
    <path d="M 106.446201 189.820692 
L 115.714276 192.644028 
L 115.222316 163.420888 
L 105.77729 160.702452 
z
" clip-path="url(#pcc95c365cd)" style="fill: #1b699f"/>
    <path d="M 106.446201 189.820692 
L 115.714276 192.644028 
L 115.222316 163.420888 
L 105.77729 160.702452 
z
" clip-path="url(#pcc95c365cd)" style="fill: #1b699f"/>
    <path d="M 106.446201 189.820692 
L 115.714276 192.644028 
L 115.222316 163.420888 
L 105.77729 160.702452 
z
" clip-path="url(#pcc95c365cd)" style="fill: #1b699f"/>
    <path d="M 137.696288 184.376635 
L 147.034167 187.141464 
L 147.284602 125.120273 
L 137.562643 122.58449 
z
" clip-path="url(#pcc95c365cd)" style="fill: #1b699f"/>
    <path d="M 99.805116 195.439094 
L 99.165063 172.160813 
L 105.91522 166.706675 
L 106.446201 189.820692 
z
" clip-path="url(#pcc95c365cd)" style="fill: #1b699f"/>
    <path d="M 162.450077 184.433056 
L 163.351273 121.215903 
L 173.226478 123.746678 
L 171.920953 187.198488 
z
" clip-path="url(#pcc95c365cd)" style="fill: #0d324b"/>
    <path d="M 109.136928 198.323456 
L 115.714276 192.644028 
L 125.08275 195.497948 
L 118.570925 201.239402 
z
" clip-path="url(#pcc95c365cd)" style="fill: #113f60"/>
    <path d="M 134.553264 198.382953 
L 140.860271 192.702262 
L 150.366002 195.556815 
L 144.127494 201.299553 
z
" clip-path="url(#pcc95c365cd)" style="fill: #113f60"/>
    <path d="M 159.97528 198.442463 
L 166.011825 192.76051 
L 175.654874 195.615695 
L 169.689805 201.359716 
z
" clip-path="url(#pcc95c365cd)" style="fill: #113f60"/>
    <path d="M 131.456421 189.878304 
L 131.247347 156.820281 
L 140.858125 159.524673 
L 140.860271 192.702262 
z
" clip-path="url(#pcc95c365cd)" style="fill: #0d324b"/>
    <path d="M 185.402977 198.501986 
L 191.168939 192.81877 
L 200.949367 195.674589 
L 195.25786 201.419893 
z
" clip-path="url(#pcc95c365cd)" style="fill: #113f60"/>
    <path d="M 140.860271 192.702262 
L 140.85755 150.626778 
L 147.202844 145.367958 
L 147.034167 187.141464 
z
" clip-path="url(#pcc95c365cd)" style="fill: #1b699f"/>
    <path d="M 115.714276 192.644028 
L 115.401615 174.071523 
L 124.88505 176.859137 
L 125.08275 195.497948 
z
" clip-path="url(#pcc95c365cd)" style="fill: #0d324b"/>
    <path d="M 118.478739 120.50027 
L 127.971553 122.992139 
L 134.387716 118.085707 
L 124.961621 115.646886 
z
" clip-path="url(#pcc95c365cd)" style="fill: #185b8a"/>
    <path d="M 125.08275 195.497948 
L 131.456421 189.878304 
L 131.27225 160.757918 
L 124.771664 166.169349 
z
" clip-path="url(#pcc95c365cd)" style="fill: #0d324b"/>
    <path d="M 156.47214 189.935929 
L 162.450077 184.433056 
L 163.349922 121.310672 
L 157.128889 126.34846 
z
" clip-path="url(#pcc95c365cd)" style="fill: #0d324b"/>
    <path d="M 156.47214 189.935929 
L 157.129875 126.252951 
L 163.351273 121.215903 
L 162.450077 184.433056 
z
" clip-path="url(#pcc95c365cd)" style="fill: #1b699f"/>
    <path d="M 140.860271 192.702262 
L 147.034167 187.141464 
L 147.228731 138.957061 
L 140.857132 144.167332 
z
" clip-path="url(#pcc95c365cd)" style="fill: #0d324b"/>
    <path d="M 171.920953 187.198488 
L 173.091963 130.284451 
L 183.034917 132.869156 
L 181.493361 189.993566 
z
" clip-path="url(#pcc95c365cd)" style="fill: #0d324b"/>
    <path d="M 125.08275 195.497948 
L 124.729589 162.202622 
L 131.247347 156.820281 
L 131.456421 189.878304 
z
" clip-path="url(#pcc95c365cd)" style="fill: #1b699f"/>
    <path d="M 105.77729 160.702452 
L 115.222316 163.420888 
L 121.790286 158.068417 
L 112.410798 155.407983 
z
" clip-path="url(#pcc95c365cd)" style="fill: #185b8a"/>
    <path d="M 105.77729 160.702452 
L 115.222316 163.420888 
L 121.790286 158.068417 
L 112.410798 155.407983 
z
" clip-path="url(#pcc95c365cd)" style="fill: #185b8a"/>
    <path d="M 105.77729 160.702452 
L 115.222316 163.420888 
L 121.790286 158.068417 
L 112.410798 155.407983 
z
" clip-path="url(#pcc95c365cd)" style="fill: #185b8a"/>
    <path d="M 118.423767 116.65684 
L 127.939622 119.133724 
L 134.371736 114.256861 
L 124.922921 111.832832 
z
" clip-path="url(#pcc95c365cd)" style="fill: #185b8a"/>
    <path d="M 99.805116 195.439094 
L 99.515957 184.922591 
L 108.912113 187.769661 
L 109.136928 198.323456 
z
" clip-path="url(#pcc95c365cd)" style="fill: #0d324b"/>
    <path d="M 156.47214 189.935929 
L 156.908998 147.638676 
L 166.721203 150.308862 
L 166.011825 192.76051 
z
" clip-path="url(#pcc95c365cd)" style="fill: #0d324b"/>
    <path d="M 109.136928 198.323456 
L 115.714276 192.644028 
L 115.401615 174.071523 
L 108.738498 179.619367 
z
" clip-path="url(#pcc95c365cd)" style="fill: #0d324b"/>
    <path d="M 109.136928 198.323456 
L 108.738498 179.619367 
L 115.401615 174.071523 
L 115.714276 192.644028 
z
" clip-path="url(#pcc95c365cd)" style="fill: #1b699f"/>
    <path d="M 109.136928 198.323456 
L 115.714276 192.644028 
L 115.401615 174.071523 
L 108.738498 179.619367 
z
" clip-path="url(#pcc95c365cd)" style="fill: #0d324b"/>
    <path d="M 99.805116 195.439094 
L 99.506084 184.563509 
L 108.904437 187.409292 
L 109.136928 198.323456 
z
" clip-path="url(#pcc95c365cd)" style="fill: #0d324b"/>
    <path d="M 118.41301 115.904709 
L 127.933373 118.378649 
L 134.368608 113.507596 
L 124.915348 111.086473 
z
" clip-path="url(#pcc95c365cd)" style="fill: #185b8a"/>
    <path d="M 115.714276 192.644028 
L 125.08275 195.497948 
L 124.771664 166.169349 
L 115.222316 163.420888 
z
" clip-path="url(#pcc95c365cd)" style="fill: #1b699f"/>
    <path d="M 112.063024 136.686667 
L 121.555495 139.276729 
L 128.064117 134.177058 
L 118.638102 131.642333 
z
" clip-path="url(#pcc95c365cd)" style="fill: #185b8a"/>
    <path d="M 112.061298 136.593773 
L 121.55433 139.183479 
L 128.063351 134.084509 
L 118.636784 131.550135 
z
" clip-path="url(#pcc95c365cd)" style="fill: #185b8a"/>
    <path d="M 99.805116 195.439094 
L 99.426928 181.684681 
L 108.842892 184.520107 
L 109.136928 198.323456 
z
" clip-path="url(#pcc95c365cd)" style="fill: #0d324b"/>
    <path d="M 147.034167 187.141464 
L 156.47214 189.935929 
L 157.128889 126.34846 
L 147.289975 123.789614 
z
" clip-path="url(#pcc95c365cd)" style="fill: #1b699f"/>
    <path d="M 112.047485 135.850215 
L 121.545004 138.437074 
L 128.057221 133.343723 
L 118.626228 130.812161 
z
" clip-path="url(#pcc95c365cd)" style="fill: #185b8a"/>
    <path d="M 109.136928 198.323456 
L 115.714276 192.644028 
L 115.323767 169.44724 
L 108.639278 174.961545 
z
" clip-path="url(#pcc95c365cd)" style="fill: #0d324b"/>
    <path d="M 93.020096 201.179266 
L 99.805116 195.439094 
L 109.136928 198.323456 
L 102.416241 204.126654 
z
" clip-path="url(#pcc95c365cd)" style="fill: #113f60"/>
    <path d="M 93.020096 201.179266 
L 99.805116 195.439094 
L 109.136928 198.323456 
L 102.416241 204.126654 
z
" clip-path="url(#pcc95c365cd)" style="fill: #113f60"/>
    <path d="M 93.020096 201.179266 
L 99.805116 195.439094 
L 109.136928 198.323456 
L 102.416241 204.126654 
z
" clip-path="url(#pcc95c365cd)" style="fill: #113f60"/>
    <path d="M 131.456421 189.878304 
L 140.860271 192.702262 
L 140.857132 144.167332 
L 131.150587 141.520939 
z
" clip-path="url(#pcc95c365cd)" style="fill: #1b699f"/>
    <path d="M 127.982421 124.305314 
L 137.571824 126.829751 
L 143.914098 121.859316 
L 134.393155 119.388866 
z
" clip-path="url(#pcc95c365cd)" style="fill: #185b8a"/>
    <path d="M 118.570925 201.239402 
L 125.08275 195.497948 
L 134.553264 198.382953 
L 128.108795 204.187455 
z
" clip-path="url(#pcc95c365cd)" style="fill: #113f60"/>
    <path d="M 144.127494 201.299553 
L 150.366002 195.556815 
L 159.97528 198.442463 
L 153.807153 204.248269 
z
" clip-path="url(#pcc95c365cd)" style="fill: #113f60"/>
    <path d="M 169.689805 201.359716 
L 175.654874 195.615695 
L 185.402977 198.501986 
L 179.511316 204.309097 
z
" clip-path="url(#pcc95c365cd)" style="fill: #113f60"/>
    <path d="M 166.011825 192.76051 
L 166.969851 135.428875 
L 173.091963 130.284451 
L 171.920953 187.198488 
z
" clip-path="url(#pcc95c365cd)" style="fill: #1b699f"/>
    <path d="M 140.860271 192.702262 
L 140.858131 159.616819 
L 150.574762 162.351507 
L 150.366002 195.556815 
z
" clip-path="url(#pcc95c365cd)" style="fill: #0d324b"/>
    <path d="M 150.366002 195.556815 
L 156.47214 189.935929 
L 156.90516 148.010281 
L 150.631495 153.327525 
z
" clip-path="url(#pcc95c365cd)" style="fill: #0d324b"/>
    <path d="M 93.020096 201.179266 
L 92.679585 190.588763 
L 99.515957 184.922591 
L 99.805116 195.439094 
z
" clip-path="url(#pcc95c365cd)" style="fill: #1b699f"/>
    <path d="M 99.805116 195.439094 
L 109.136928 198.323456 
L 108.738498 179.619367 
L 99.292666 176.801647 
z
" clip-path="url(#pcc95c365cd)" style="fill: #1b699f"/>
    <path d="M 99.805116 195.439094 
L 109.136928 198.323456 
L 108.738498 179.619367 
L 99.292666 176.801647 
z
" clip-path="url(#pcc95c365cd)" style="fill: #1b699f"/>
    <path d="M 150.366002 195.556815 
L 150.633849 152.953116 
L 156.908998 147.638676 
L 156.47214 189.935929 
z
" clip-path="url(#pcc95c365cd)" style="fill: #1b699f"/>
    <path d="M 121.627459 145.036446 
L 131.189521 147.677121 
L 137.605668 142.477844 
L 128.111427 139.893686 
z
" clip-path="url(#pcc95c365cd)" style="fill: #185b8a"/>
    <path d="M 93.020096 201.179266 
L 92.667958 190.227126 
L 99.506084 184.563509 
L 99.805116 195.439094 
z
" clip-path="url(#pcc95c365cd)" style="fill: #1b699f"/>
    <path d="M 125.08275 195.497948 
L 124.88505 176.859137 
L 134.473069 179.677494 
L 134.553264 198.382953 
z
" clip-path="url(#pcc95c365cd)" style="fill: #0d324b"/>
    <path d="M 99.292666 176.801647 
L 108.738498 179.619367 
L 115.401615 174.071523 
L 106.021064 171.314152 
z
" clip-path="url(#pcc95c365cd)" style="fill: #185b8a"/>
    <path d="M 99.292666 176.801647 
L 108.738498 179.619367 
L 115.401615 174.071523 
L 106.021064 171.314152 
z
" clip-path="url(#pcc95c365cd)" style="fill: #185b8a"/>
    <path d="M 93.020096 201.179266 
L 92.574736 187.327745 
L 99.426928 181.684681 
L 99.805116 195.439094 
z
" clip-path="url(#pcc95c365cd)" style="fill: #1b699f"/>
    <path d="M 99.805116 195.439094 
L 109.136928 198.323456 
L 108.639278 174.961545 
L 99.165063 172.160813 
z
" clip-path="url(#pcc95c365cd)" style="fill: #1b699f"/>
    <path d="M 166.011825 192.76051 
L 171.920953 187.198488 
L 173.226478 123.746678 
L 167.07995 128.84017 
z
" clip-path="url(#pcc95c365cd)" style="fill: #0d324b"/>
    <path d="M 181.493361 189.993566 
L 183.03236 132.963873 
L 193.085949 135.577871 
L 191.168939 192.81877 
z
" clip-path="url(#pcc95c365cd)" style="fill: #0d324b"/>
    <path d="M 134.553264 198.382953 
L 134.410399 165.059618 
L 140.858131 159.616819 
L 140.860271 192.702262 
z
" clip-path="url(#pcc95c365cd)" style="fill: #1b699f"/>
    <path d="M 134.553264 198.382953 
L 140.860271 192.702262 
L 140.858125 159.524673 
L 134.410001 164.966787 
z
" clip-path="url(#pcc95c365cd)" style="fill: #0d324b"/>
    <path d="M 115.222316 163.420888 
L 124.771664 166.169349 
L 131.27225 160.757918 
L 121.790286 158.068417 
z
" clip-path="url(#pcc95c365cd)" style="fill: #185b8a"/>
    <path d="M 140.860271 192.702262 
L 150.366002 195.556815 
L 150.631495 153.327525 
L 140.85755 150.626778 
z
" clip-path="url(#pcc95c365cd)" style="fill: #1b699f"/>
    <path d="M 109.136928 198.323456 
L 108.912113 187.769661 
L 118.411891 190.648129 
L 118.570925 201.239402 
z
" clip-path="url(#pcc95c365cd)" style="fill: #0d324b"/>
    <path d="M 118.570925 201.239402 
L 125.08275 195.497948 
L 124.88505 176.859137 
L 118.289066 182.468331 
z
" clip-path="url(#pcc95c365cd)" style="fill: #0d324b"/>
    <path d="M 118.570925 201.239402 
L 118.289066 182.468331 
L 124.88505 176.859137 
L 125.08275 195.497948 
z
" clip-path="url(#pcc95c365cd)" style="fill: #1b699f"/>
    <path d="M 150.366002 195.556815 
L 150.550403 166.226047 
L 160.350081 169.005665 
L 159.97528 198.442463 
z
" clip-path="url(#pcc95c365cd)" style="fill: #0d324b"/>
    <path d="M 99.165063 172.160813 
L 108.639278 174.961545 
L 115.323767 169.44724 
L 105.91522 166.706675 
z
" clip-path="url(#pcc95c365cd)" style="fill: #185b8a"/>
    <path d="M 166.011825 192.76051 
L 166.785268 146.474999 
L 176.731984 149.160276 
L 175.654874 195.615695 
z
" clip-path="url(#pcc95c365cd)" style="fill: #0d324b"/>
    <path d="M 156.47214 189.935929 
L 166.011825 192.76051 
L 167.07995 128.84017 
L 157.129875 126.252951 
z
" clip-path="url(#pcc95c365cd)" style="fill: #1b699f"/>
    <path d="M 102.416241 204.126654 
L 109.136928 198.323456 
L 118.570925 201.239402 
L 111.916404 207.106671 
z
" clip-path="url(#pcc95c365cd)" style="fill: #113f60"/>
    <path d="M 128.108795 204.187455 
L 134.553264 198.382953 
L 144.127494 201.299553 
L 137.752263 207.168147 
z
" clip-path="url(#pcc95c365cd)" style="fill: #113f60"/>
    <path d="M 153.807153 204.248269 
L 159.97528 198.442463 
L 169.689805 201.359716 
L 163.593991 207.229636 
z
" clip-path="url(#pcc95c365cd)" style="fill: #113f60"/>
    <path d="M 125.08275 195.497948 
L 134.553264 198.382953 
L 134.410001 164.966787 
L 124.729589 162.202622 
z
" clip-path="url(#pcc95c365cd)" style="fill: #1b699f"/>
    <path d="M 175.654874 195.615695 
L 176.986879 138.16676 
L 183.03236 132.963873 
L 181.493361 189.993566 
z
" clip-path="url(#pcc95c365cd)" style="fill: #1b699f"/>
    <path d="M 179.511316 204.309097 
L 185.402977 198.501986 
L 195.25786 201.419893 
L 189.44159 207.291139 
z
" clip-path="url(#pcc95c365cd)" style="fill: #113f60"/>
    <path d="M 175.654874 195.615695 
L 181.493361 189.993566 
L 183.034917 132.869156 
L 176.989092 138.071307 
z
" clip-path="url(#pcc95c365cd)" style="fill: #0d324b"/>
    <path d="M 102.416241 204.126654 
L 109.136928 198.323456 
L 108.912113 187.769661 
L 102.140956 193.498491 
z
" clip-path="url(#pcc95c365cd)" style="fill: #0d324b"/>
    <path d="M 102.416241 204.126654 
L 102.140956 193.498491 
L 108.912113 187.769661 
L 109.136928 198.323456 
z
" clip-path="url(#pcc95c365cd)" style="fill: #1b699f"/>
    <path d="M 109.136928 198.323456 
L 118.570925 201.239402 
L 118.289066 182.468331 
L 108.738498 179.619367 
z
" clip-path="url(#pcc95c365cd)" style="fill: #1b699f"/>
    <path d="M 159.97528 198.442463 
L 166.011825 192.76051 
L 166.721203 150.308862 
L 160.519715 155.682688 
z
" clip-path="url(#pcc95c365cd)" style="fill: #0d324b"/>
    <path d="M 102.416241 204.126654 
L 109.136928 198.323456 
L 108.904437 187.409292 
L 102.131556 193.135553 
z
" clip-path="url(#pcc95c365cd)" style="fill: #0d324b"/>
    <path d="M 92.679585 190.588763 
L 102.140956 193.498491 
L 108.912113 187.769661 
L 99.515957 184.922591 
z
" clip-path="url(#pcc95c365cd)" style="fill: #185b8a"/>
    <path d="M 108.738498 179.619367 
L 118.289066 182.468331 
L 124.88505 176.859137 
L 115.401615 174.071523 
z
" clip-path="url(#pcc95c365cd)" style="fill: #185b8a"/>
    <path d="M 144.127494 201.299553 
L 144.190314 171.758359 
L 150.550403 166.226047 
L 150.366002 195.556815 
z
" clip-path="url(#pcc95c365cd)" style="fill: #1b699f"/>
    <path d="M 92.667958 190.227126 
L 102.131556 193.135553 
L 108.904437 187.409292 
L 99.506084 184.563509 
z
" clip-path="url(#pcc95c365cd)" style="fill: #185b8a"/>
    <path d="M 102.416241 204.126654 
L 109.136928 198.323456 
L 108.842892 184.520107 
L 102.056186 190.225708 
z
" clip-path="url(#pcc95c365cd)" style="fill: #0d324b"/>
    <path d="M 93.020096 201.179266 
L 92.827347 195.184419 
L 102.260416 198.110591 
L 102.416241 204.126654 
z
" clip-path="url(#pcc95c365cd)" style="fill: #0d324b"/>
    <path d="M 159.97528 198.442463 
L 160.5689 151.819712 
L 166.785268 146.474999 
L 166.011825 192.76051 
z
" clip-path="url(#pcc95c365cd)" style="fill: #1b699f"/>
    <path d="M 93.020096 201.179266 
L 92.81001 194.645214 
L 102.2464 197.569465 
L 102.416241 204.126654 
z
" clip-path="url(#pcc95c365cd)" style="fill: #0d324b"/>
    <path d="M 93.020096 201.179266 
L 92.807119 194.555309 
L 102.244063 197.479239 
L 102.416241 204.126654 
z
" clip-path="url(#pcc95c365cd)" style="fill: #0d324b"/>
    <path d="M 137.562643 122.58449 
L 147.284602 125.120273 
L 153.573247 120.127719 
L 143.922031 117.646606 
z
" clip-path="url(#pcc95c365cd)" style="fill: #185b8a"/>
    <path d="M 134.553264 198.382953 
L 134.446808 173.552016 
L 144.180488 176.379129 
L 144.127494 201.299553 
z
" clip-path="url(#pcc95c365cd)" style="fill: #0d324b"/>
    <path d="M 166.011825 192.76051 
L 175.654874 195.615695 
L 176.989092 138.071307 
L 166.969851 135.428875 
z
" clip-path="url(#pcc95c365cd)" style="fill: #1b699f"/>
    <path d="M 144.127494 201.299553 
L 150.366002 195.556815 
L 150.574762 162.351507 
L 144.198614 167.855085 
z
" clip-path="url(#pcc95c365cd)" style="fill: #0d324b"/>
    <path d="M 93.020096 201.179266 
L 102.416241 204.126654 
L 102.140956 193.498491 
L 92.679585 190.588763 
z
" clip-path="url(#pcc95c365cd)" style="fill: #1b699f"/>
    <path d="M 150.366002 195.556815 
L 159.97528 198.442463 
L 160.519715 155.682688 
L 150.633849 152.953116 
z
" clip-path="url(#pcc95c365cd)" style="fill: #1b699f"/>
    <path d="M 93.020096 201.179266 
L 102.416241 204.126654 
L 102.131556 193.135553 
L 92.667958 190.227126 
z
" clip-path="url(#pcc95c365cd)" style="fill: #1b699f"/>
    <path d="M 128.108795 204.187455 
L 134.553264 198.382953 
L 134.473069 179.677494 
L 127.946123 185.34906 
z
" clip-path="url(#pcc95c365cd)" style="fill: #0d324b"/>
    <path d="M 92.574736 187.327745 
L 102.056186 190.225708 
L 108.842892 184.520107 
L 99.426928 181.684681 
z
" clip-path="url(#pcc95c365cd)" style="fill: #185b8a"/>
    <path d="M 118.570925 201.239402 
L 118.369735 187.84067 
L 127.992682 190.740934 
L 128.108795 204.187455 
z
" clip-path="url(#pcc95c365cd)" style="fill: #0d324b"/>
    <path d="M 93.020096 201.179266 
L 102.416241 204.126654 
L 102.056186 190.225708 
L 92.574736 187.327745 
z
" clip-path="url(#pcc95c365cd)" style="fill: #1b699f"/>
    <path d="M 175.654874 195.615695 
L 176.714538 149.912719 
L 186.767968 152.631056 
L 185.402977 198.501986 
z
" clip-path="url(#pcc95c365cd)" style="fill: #0d324b"/>
    <path d="M 86.08641 207.045209 
L 85.863355 201.008265 
L 92.827347 195.184419 
L 93.020096 201.179266 
z
" clip-path="url(#pcc95c365cd)" style="fill: #1b699f"/>
    <path d="M 191.168939 192.81877 
L 193.261677 130.33073 
L 203.463852 132.953482 
L 200.949367 195.674589 
z
" clip-path="url(#pcc95c365cd)" style="fill: #0d324b"/>
    <path d="M 86.08641 207.045209 
L 85.843291 200.465248 
L 92.81001 194.645214 
L 93.020096 201.179266 
z
" clip-path="url(#pcc95c365cd)" style="fill: #1b699f"/>
    <path d="M 131.150587 141.520939 
L 140.857132 144.167332 
L 147.228731 138.957061 
L 137.592453 136.367839 
z
" clip-path="url(#pcc95c365cd)" style="fill: #185b8a"/>
    <path d="M 86.08641 207.045209 
L 85.839946 200.374707 
L 92.807119 194.555309 
L 93.020096 201.179266 
z
" clip-path="url(#pcc95c365cd)" style="fill: #1b699f"/>
    <path d="M 86.08641 207.045209 
L 93.020096 201.179266 
L 102.416241 204.126654 
L 95.547479 210.057713 
z
" clip-path="url(#pcc95c365cd)" style="fill: #113f60"/>
    <path d="M 86.08641 207.045209 
L 93.020096 201.179266 
L 102.416241 204.126654 
L 95.547479 210.057713 
z
" clip-path="url(#pcc95c365cd)" style="fill: #113f60"/>
    <path d="M 86.08641 207.045209 
L 93.020096 201.179266 
L 102.416241 204.126654 
L 95.547479 210.057713 
z
" clip-path="url(#pcc95c365cd)" style="fill: #113f60"/>
    <path d="M 111.916404 207.106671 
L 118.570925 201.239402 
L 128.108795 204.187455 
L 121.52232 210.119861 
z
" clip-path="url(#pcc95c365cd)" style="fill: #113f60"/>
    <path d="M 137.752263 207.168147 
L 144.127494 201.299553 
L 153.807153 204.248269 
L 147.503093 210.182023 
z
" clip-path="url(#pcc95c365cd)" style="fill: #113f60"/>
    <path d="M 128.108795 204.187455 
L 127.892843 179.178933 
L 134.446808 173.552016 
L 134.553264 198.382953 
z
" clip-path="url(#pcc95c365cd)" style="fill: #1b699f"/>
    <path d="M 163.593991 207.229636 
L 169.689805 201.359716 
L 179.511316 204.309097 
L 173.489801 210.244199 
z
" clip-path="url(#pcc95c365cd)" style="fill: #113f60"/>
    <path d="M 134.553264 198.382953 
L 144.127494 201.299553 
L 144.198614 167.855085 
L 134.410399 165.059618 
z
" clip-path="url(#pcc95c365cd)" style="fill: #1b699f"/>
    <path d="M 185.402977 198.501986 
L 191.168939 192.81877 
L 193.085949 135.577871 
L 187.118853 140.839466 
z
" clip-path="url(#pcc95c365cd)" style="fill: #0d324b"/>
    <path d="M 124.729589 162.202622 
L 134.410001 164.966787 
L 140.858125 159.524673 
L 131.247347 156.820281 
z
" clip-path="url(#pcc95c365cd)" style="fill: #185b8a"/>
    <path d="M 140.85755 150.626778 
L 150.631495 153.327525 
L 156.90516 148.010281 
L 147.202844 145.367958 
z
" clip-path="url(#pcc95c365cd)" style="fill: #185b8a"/>
    <path d="M 159.97528 198.442463 
L 160.413792 164.001852 
L 170.356024 166.793765 
L 169.689805 201.359716 
z
" clip-path="url(#pcc95c365cd)" style="fill: #0d324b"/>
    <path d="M 111.916404 207.106671 
L 118.570925 201.239402 
L 118.411891 190.648129 
L 111.707819 196.440661 
z
" clip-path="url(#pcc95c365cd)" style="fill: #0d324b"/>
    <path d="M 118.570925 201.239402 
L 128.108795 204.187455 
L 127.946123 185.34906 
L 118.289066 182.468331 
z
" clip-path="url(#pcc95c365cd)" style="fill: #1b699f"/>
    <path d="M 144.127494 201.299553 
L 144.167608 182.435709 
L 153.970654 185.316762 
L 153.807153 204.248269 
z
" clip-path="url(#pcc95c365cd)" style="fill: #0d324b"/>
    <path d="M 102.140956 193.498491 
L 111.707819 196.440661 
L 118.411891 190.648129 
L 108.912113 187.769661 
z
" clip-path="url(#pcc95c365cd)" style="fill: #185b8a"/>
    <path d="M 118.289066 182.468331 
L 127.946123 185.34906 
L 134.473069 179.677494 
L 124.88505 176.859137 
z
" clip-path="url(#pcc95c365cd)" style="fill: #185b8a"/>
    <path d="M 111.916404 207.106671 
L 111.652523 193.613112 
L 118.369735 187.84067 
L 118.570925 201.239402 
z
" clip-path="url(#pcc95c365cd)" style="fill: #1b699f"/>
    <path d="M 153.807153 204.248269 
L 159.97528 198.442463 
L 160.350081 169.005665 
L 154.063209 174.599943 
z
" clip-path="url(#pcc95c365cd)" style="fill: #0d324b"/>
    <path d="M 169.689805 201.359716 
L 170.577102 155.323386 
L 176.714538 149.912719 
L 175.654874 195.615695 
z
" clip-path="url(#pcc95c365cd)" style="fill: #1b699f"/>
    <path d="M 185.402977 198.501986 
L 187.276215 135.5513 
L 193.261677 130.33073 
L 191.168939 192.81877 
z
" clip-path="url(#pcc95c365cd)" style="fill: #1b699f"/>
    <path d="M 169.689805 201.359716 
L 175.654874 195.615695 
L 176.731984 149.160276 
L 170.591715 154.5652 
z
" clip-path="url(#pcc95c365cd)" style="fill: #0d324b"/>
    <path d="M 102.416241 204.126654 
L 102.241726 197.389003 
L 111.784174 200.345125 
L 111.916404 207.106671 
z
" clip-path="url(#pcc95c365cd)" style="fill: #0d324b"/>
    <path d="M 175.654874 195.615695 
L 185.402977 198.501986 
L 187.118853 140.839466 
L 176.986879 138.16676 
z
" clip-path="url(#pcc95c365cd)" style="fill: #1b699f"/>
    <path d="M 102.416241 204.126654 
L 111.916404 207.106671 
L 111.707819 196.440661 
L 102.140956 193.498491 
z
" clip-path="url(#pcc95c365cd)" style="fill: #1b699f"/>
    <path d="M 153.807153 204.248269 
L 154.106746 169.558907 
L 160.413792 164.001852 
L 159.97528 198.442463 
z
" clip-path="url(#pcc95c365cd)" style="fill: #1b699f"/>
    <path d="M 147.289975 123.789614 
L 157.128889 126.34846 
L 163.349922 121.310672 
L 153.583844 118.807341 
z
" clip-path="url(#pcc95c365cd)" style="fill: #185b8a"/>
    <path d="M 137.752263 207.168147 
L 137.711259 188.170032 
L 144.167608 182.435709 
L 144.127494 201.299553 
z
" clip-path="url(#pcc95c365cd)" style="fill: #1b699f"/>
    <path d="M 85.863355 201.008265 
L 95.361852 203.999349 
L 102.260416 198.110591 
L 92.827347 195.184419 
z
" clip-path="url(#pcc95c365cd)" style="fill: #185b8a"/>
    <path d="M 85.843291 200.465248 
L 95.345155 203.454391 
L 102.2464 197.569465 
L 92.81001 194.645214 
z
" clip-path="url(#pcc95c365cd)" style="fill: #185b8a"/>
    <path d="M 85.839946 200.374707 
L 95.342371 203.363526 
L 102.244063 197.479239 
L 92.807119 194.555309 
z
" clip-path="url(#pcc95c365cd)" style="fill: #185b8a"/>
    <path d="M 169.689805 201.359716 
L 170.250288 172.279711 
L 180.267609 175.123678 
L 179.511316 204.309097 
z
" clip-path="url(#pcc95c365cd)" style="fill: #0d324b"/>
    <path d="M 144.127494 201.299553 
L 153.807153 204.248269 
L 154.063209 174.599943 
L 144.190314 171.758359 
z
" clip-path="url(#pcc95c365cd)" style="fill: #1b699f"/>
    <path d="M 95.547479 210.057713 
L 102.416241 204.126654 
L 102.260416 198.110591 
L 95.361852 203.999349 
z
" clip-path="url(#pcc95c365cd)" style="fill: #0d324b"/>
    <path d="M 159.97528 198.442463 
L 169.689805 201.359716 
L 170.591715 154.5652 
L 160.5689 151.819712 
z
" clip-path="url(#pcc95c365cd)" style="fill: #1b699f"/>
    <path d="M 95.547479 210.057713 
L 102.416241 204.126654 
L 102.2464 197.569465 
L 95.345155 203.454391 
z
" clip-path="url(#pcc95c365cd)" style="fill: #0d324b"/>
    <path d="M 95.547479 210.057713 
L 102.416241 204.126654 
L 102.244063 197.479239 
L 95.342371 203.363526 
z
" clip-path="url(#pcc95c365cd)" style="fill: #0d324b"/>
    <path d="M 95.547479 210.057713 
L 95.339587 203.27265 
L 102.241726 197.389003 
L 102.416241 204.126654 
z
" clip-path="url(#pcc95c365cd)" style="fill: #1b699f"/>
    <path d="M 128.108795 204.187455 
L 127.981664 189.465001 
L 137.720374 192.39304 
L 137.752263 207.168147 
z
" clip-path="url(#pcc95c365cd)" style="fill: #0d324b"/>
    <path d="M 185.402977 198.501986 
L 186.812944 151.119644 
L 196.990192 153.86285 
L 195.25786 201.419893 
z
" clip-path="url(#pcc95c365cd)" style="fill: #0d324b"/>
    <path d="M 95.547479 210.057713 
L 102.416241 204.126654 
L 111.916404 207.106671 
L 105.114444 213.103935 
z
" clip-path="url(#pcc95c365cd)" style="fill: #113f60"/>
    <path d="M 121.52232 210.119861 
L 128.108795 204.187455 
L 137.752263 207.168147 
L 131.235767 213.166781 
z
" clip-path="url(#pcc95c365cd)" style="fill: #113f60"/>
    <path d="M 147.503093 210.182023 
L 153.807153 204.248269 
L 163.593991 207.229636 
L 157.363088 213.22964 
z
" clip-path="url(#pcc95c365cd)" style="fill: #113f60"/>
    <path d="M 137.752263 207.168147 
L 144.127494 201.299553 
L 144.180488 176.379129 
L 137.698092 182.069225 
z
" clip-path="url(#pcc95c365cd)" style="fill: #0d324b"/>
    <path d="M 173.489801 210.244199 
L 179.511316 204.309097 
L 189.44159 207.291139 
L 183.49641 213.292514 
z
" clip-path="url(#pcc95c365cd)" style="fill: #113f60"/>
    <path d="M 86.08641 207.045209 
L 86.036629 205.697906 
L 95.506052 208.705653 
L 95.547479 210.057713 
z
" clip-path="url(#pcc95c365cd)" style="fill: #0d324b"/>
    <path d="M 134.410399 165.059618 
L 144.198614 167.855085 
L 150.574762 162.351507 
L 140.858131 159.616819 
z
" clip-path="url(#pcc95c365cd)" style="fill: #185b8a"/>
    <path d="M 86.08641 207.045209 
L 86.010043 204.978343 
L 95.483927 207.983544 
L 95.547479 210.057713 
z
" clip-path="url(#pcc95c365cd)" style="fill: #0d324b"/>
    <path d="M 86.08641 207.045209 
L 86.010043 204.978343 
L 95.483927 207.983544 
L 95.547479 210.057713 
z
" clip-path="url(#pcc95c365cd)" style="fill: #0d324b"/>
    <path d="M 150.633849 152.953116 
L 160.519715 155.682688 
L 166.721203 150.308862 
L 156.908998 147.638676 
z
" clip-path="url(#pcc95c365cd)" style="fill: #185b8a"/>
    <path d="M 163.593991 207.229636 
L 164.040499 177.940436 
L 170.250288 172.279711 
L 169.689805 201.359716 
z
" clip-path="url(#pcc95c365cd)" style="fill: #1b699f"/>
    <path d="M 153.807153 204.248269 
L 153.989696 183.111926 
L 163.917371 186.017194 
L 163.593991 207.229636 
z
" clip-path="url(#pcc95c365cd)" style="fill: #0d324b"/>
    <path d="M 121.52232 210.119861 
L 128.108795 204.187455 
L 127.992682 190.740934 
L 121.344732 196.578045 
z
" clip-path="url(#pcc95c365cd)" style="fill: #0d324b"/>
    <path d="M 86.08641 207.045209 
L 95.547479 210.057713 
L 95.361852 203.999349 
L 85.863355 201.008265 
z
" clip-path="url(#pcc95c365cd)" style="fill: #1b699f"/>
    <path d="M 179.511316 204.309097 
L 185.402977 198.501986 
L 186.767968 152.631056 
L 180.708673 158.102993 
z
" clip-path="url(#pcc95c365cd)" style="fill: #0d324b"/>
    <path d="M 111.916404 207.106671 
L 111.798336 201.069288 
L 121.442865 204.061056 
L 121.52232 210.119861 
z
" clip-path="url(#pcc95c365cd)" style="fill: #0d324b"/>
    <path d="M 86.08641 207.045209 
L 95.547479 210.057713 
L 95.345155 203.454391 
L 85.843291 200.465248 
z
" clip-path="url(#pcc95c365cd)" style="fill: #1b699f"/>
    <path d="M 86.08641 207.045209 
L 95.547479 210.057713 
L 95.342371 203.363526 
L 85.839946 200.374707 
z
" clip-path="url(#pcc95c365cd)" style="fill: #1b699f"/>
    <path d="M 195.25786 201.419893 
L 200.949367 195.674589 
L 203.463852 132.953482 
L 197.559513 138.233496 
z
" clip-path="url(#pcc95c365cd)" style="fill: #0d324b"/>
    <path d="M 121.52232 210.119861 
L 121.327879 195.29293 
L 127.981664 189.465001 
L 128.108795 204.187455 
z
" clip-path="url(#pcc95c365cd)" style="fill: #1b699f"/>
    <path d="M 179.511316 204.309097 
L 180.748139 156.58001 
L 186.812944 151.119644 
L 185.402977 198.501986 
z
" clip-path="url(#pcc95c365cd)" style="fill: #1b699f"/>
    <path d="M 128.108795 204.187455 
L 137.752263 207.168147 
L 137.698092 182.069225 
L 127.892843 179.178933 
z
" clip-path="url(#pcc95c365cd)" style="fill: #1b699f"/>
    <path d="M 78.999119 213.041105 
L 78.942285 211.684363 
L 86.036629 205.697906 
L 86.08641 207.045209 
z
" clip-path="url(#pcc95c365cd)" style="fill: #1b699f"/>
    <path d="M 78.999119 213.041105 
L 78.911931 210.959749 
L 86.010043 204.978343 
L 86.08641 207.045209 
z
" clip-path="url(#pcc95c365cd)" style="fill: #1b699f"/>
    <path d="M 78.999119 213.041105 
L 78.911931 210.959749 
L 86.010043 204.978343 
L 86.08641 207.045209 
z
" clip-path="url(#pcc95c365cd)" style="fill: #1b699f"/>
    <path d="M 144.190314 171.758359 
L 154.063209 174.599943 
L 160.350081 169.005665 
L 150.550403 166.226047 
z
" clip-path="url(#pcc95c365cd)" style="fill: #185b8a"/>
    <path d="M 111.652523 193.613112 
L 121.344732 196.578045 
L 127.992682 190.740934 
L 118.369735 187.84067 
z
" clip-path="url(#pcc95c365cd)" style="fill: #185b8a"/>
    <path d="M 163.593991 207.229636 
L 169.689805 201.359716 
L 170.356024 166.793765 
L 164.124754 172.413622 
z
" clip-path="url(#pcc95c365cd)" style="fill: #0d324b"/>
    <path d="M 137.752263 207.168147 
L 137.729241 196.501358 
L 147.550378 199.477199 
L 147.503093 210.182023 
z
" clip-path="url(#pcc95c365cd)" style="fill: #0d324b"/>
    <path d="M 147.503093 210.182023 
L 153.807153 204.248269 
L 153.970654 185.316762 
L 147.587312 191.11557 
z
" clip-path="url(#pcc95c365cd)" style="fill: #0d324b"/>
    <path d="M 157.129875 126.252951 
L 167.07995 128.84017 
L 173.226478 123.746678 
L 163.351273 121.215903 
z
" clip-path="url(#pcc95c365cd)" style="fill: #185b8a"/>
    <path d="M 95.339587 203.27265 
L 104.949428 206.29475 
L 111.784174 200.345125 
L 102.241726 197.389003 
z
" clip-path="url(#pcc95c365cd)" style="fill: #185b8a"/>
    <path d="M 147.503093 210.182023 
L 147.597122 188.894671 
L 153.989696 183.111926 
L 153.807153 204.248269 
z
" clip-path="url(#pcc95c365cd)" style="fill: #1b699f"/>
    <path d="M 111.916404 207.106671 
L 121.52232 210.119861 
L 121.344732 196.578045 
L 111.652523 193.613112 
z
" clip-path="url(#pcc95c365cd)" style="fill: #1b699f"/>
    <path d="M 169.689805 201.359716 
L 179.511316 204.309097 
L 180.708673 158.102993 
L 170.577102 155.323386 
z
" clip-path="url(#pcc95c365cd)" style="fill: #1b699f"/>
    <path d="M 179.511316 204.309097 
L 180.27484 174.844646 
L 190.407195 177.719685 
L 189.44159 207.291139 
z
" clip-path="url(#pcc95c365cd)" style="fill: #0d324b"/>
    <path d="M 105.114444 213.103935 
L 104.967102 207.024049 
L 111.798336 201.069288 
L 111.916404 207.106671 
z
" clip-path="url(#pcc95c365cd)" style="fill: #1b699f"/>
    <path d="M 185.402977 198.501986 
L 195.25786 201.419893 
L 197.559513 138.233496 
L 187.276215 135.5513 
z
" clip-path="url(#pcc95c365cd)" style="fill: #1b699f"/>
    <path d="M 105.114444 213.103935 
L 111.916404 207.106671 
L 111.784174 200.345125 
L 104.949428 206.29475 
z
" clip-path="url(#pcc95c365cd)" style="fill: #0d324b"/>
    <path d="M 166.969851 135.428875 
L 176.989092 138.071307 
L 183.034917 132.869156 
L 173.091963 130.284451 
z
" clip-path="url(#pcc95c365cd)" style="fill: #185b8a"/>
    <path d="M 78.999119 213.041105 
L 86.08641 207.045209 
L 95.547479 210.057713 
L 88.525694 216.120905 
z
" clip-path="url(#pcc95c365cd)" style="fill: #113f60"/>
    <path d="M 78.999119 213.041105 
L 86.08641 207.045209 
L 95.547479 210.057713 
L 88.525694 216.120905 
z
" clip-path="url(#pcc95c365cd)" style="fill: #113f60"/>
    <path d="M 78.999119 213.041105 
L 86.08641 207.045209 
L 95.547479 210.057713 
L 88.525694 216.120905 
z
" clip-path="url(#pcc95c365cd)" style="fill: #113f60"/>
    <path d="M 105.114444 213.103935 
L 111.916404 207.106671 
L 121.52232 210.119861 
L 114.789094 216.184445 
z
" clip-path="url(#pcc95c365cd)" style="fill: #113f60"/>
    <path d="M 131.235767 213.166781 
L 137.752263 207.168147 
L 147.503093 210.182023 
L 141.058559 216.248 
z
" clip-path="url(#pcc95c365cd)" style="fill: #113f60"/>
    <path d="M 157.363088 213.22964 
L 163.593991 207.229636 
L 173.489801 210.244199 
L 167.33409 216.311569 
z
" clip-path="url(#pcc95c365cd)" style="fill: #113f60"/>
    <path d="M 127.892843 179.178933 
L 137.698092 182.069225 
L 144.180488 176.379129 
L 134.446808 173.552016 
z
" clip-path="url(#pcc95c365cd)" style="fill: #185b8a"/>
    <path d="M 95.547479 210.057713 
L 95.492227 208.254417 
L 105.070588 211.294262 
L 105.114444 213.103935 
z
" clip-path="url(#pcc95c365cd)" style="fill: #0d324b"/>
    <path d="M 153.807153 204.248269 
L 163.593991 207.229636 
L 164.124754 172.413622 
L 154.106746 169.558907 
z
" clip-path="url(#pcc95c365cd)" style="fill: #1b699f"/>
    <path d="M 78.942285 211.684363 
L 88.477328 214.759363 
L 95.506052 208.705653 
L 86.036629 205.697906 
z
" clip-path="url(#pcc95c365cd)" style="fill: #185b8a"/>
    <path d="M 131.235767 213.166781 
L 131.165155 202.424524 
L 137.729241 196.501358 
L 137.752263 207.168147 
z
" clip-path="url(#pcc95c365cd)" style="fill: #1b699f"/>
    <path d="M 137.752263 207.168147 
L 147.503093 210.182023 
L 147.587312 191.11557 
L 137.711259 188.170032 
z
" clip-path="url(#pcc95c365cd)" style="fill: #1b699f"/>
    <path d="M 78.911931 210.959749 
L 88.451496 214.03218 
L 95.483927 207.983544 
L 86.010043 204.978343 
z
" clip-path="url(#pcc95c365cd)" style="fill: #185b8a"/>
    <path d="M 78.911931 210.959749 
L 88.451496 214.03218 
L 95.483927 207.983544 
L 86.010043 204.978343 
z
" clip-path="url(#pcc95c365cd)" style="fill: #185b8a"/>
    <path d="M 137.711259 188.170032 
L 147.587312 191.11557 
L 153.970654 185.316762 
L 144.167608 182.435709 
z
" clip-path="url(#pcc95c365cd)" style="fill: #185b8a"/>
    <path d="M 173.489801 210.244199 
L 179.511316 204.309097 
L 180.267609 175.123678 
L 174.135146 180.848505 
z
" clip-path="url(#pcc95c365cd)" style="fill: #0d324b"/>
    <path d="M 163.593991 207.229636 
L 163.920187 185.832489 
L 173.961242 188.769888 
L 173.489801 210.244199 
z
" clip-path="url(#pcc95c365cd)" style="fill: #0d324b"/>
    <path d="M 173.489801 210.244199 
L 174.141317 180.567402 
L 180.27484 174.844646 
L 179.511316 204.309097 
z
" clip-path="url(#pcc95c365cd)" style="fill: #1b699f"/>
    <path d="M 95.547479 210.057713 
L 105.114444 213.103935 
L 104.949428 206.29475 
L 95.339587 203.27265 
z
" clip-path="url(#pcc95c365cd)" style="fill: #1b699f"/>
    <path d="M 121.52232 210.119861 
L 121.434526 203.425187 
L 131.191604 206.448307 
L 131.235767 213.166781 
z
" clip-path="url(#pcc95c365cd)" style="fill: #0d324b"/>
    <path d="M 131.235767 213.166781 
L 137.752263 207.168147 
L 137.720374 192.39304 
L 131.137956 198.286683 
z
" clip-path="url(#pcc95c365cd)" style="fill: #0d324b"/>
    <path d="M 189.44159 207.291139 
L 195.25786 201.419893 
L 196.990192 153.86285 
L 191.005868 159.385462 
z
" clip-path="url(#pcc95c365cd)" style="fill: #0d324b"/>
    <path d="M 88.525694 216.120905 
L 95.547479 210.057713 
L 95.506052 208.705653 
L 88.477328 214.759363 
z
" clip-path="url(#pcc95c365cd)" style="fill: #0d324b"/>
    <path d="M 88.525694 216.120905 
L 88.461186 214.304957 
L 95.492227 208.254417 
L 95.547479 210.057713 
z
" clip-path="url(#pcc95c365cd)" style="fill: #1b699f"/>
    <path d="M 88.525694 216.120905 
L 95.547479 210.057713 
L 95.483927 207.983544 
L 88.451496 214.03218 
z
" clip-path="url(#pcc95c365cd)" style="fill: #0d324b"/>
    <path d="M 88.525694 216.120905 
L 95.547479 210.057713 
L 95.483927 207.983544 
L 88.451496 214.03218 
z
" clip-path="url(#pcc95c365cd)" style="fill: #0d324b"/>
    <path d="M 160.5689 151.819712 
L 170.591715 154.5652 
L 176.731984 149.160276 
L 166.785268 146.474999 
z
" clip-path="url(#pcc95c365cd)" style="fill: #185b8a"/>
    <path d="M 104.967102 207.024049 
L 114.680914 210.082935 
L 121.442865 204.061056 
L 111.798336 201.069288 
z
" clip-path="url(#pcc95c365cd)" style="fill: #185b8a"/>
    <path d="M 121.327879 195.29293 
L 131.137956 198.286683 
L 137.720374 192.39304 
L 127.981664 189.465001 
z
" clip-path="url(#pcc95c365cd)" style="fill: #185b8a"/>
    <path d="M 163.593991 207.229636 
L 173.489801 210.244199 
L 174.135146 180.848505 
L 164.040499 177.940436 
z
" clip-path="url(#pcc95c365cd)" style="fill: #1b699f"/>
    <path d="M 157.363088 213.22964 
L 163.593991 207.229636 
L 163.917371 186.017194 
L 157.600089 191.865433 
z
" clip-path="url(#pcc95c365cd)" style="fill: #0d324b"/>
    <path d="M 157.363088 213.22964 
L 157.602153 191.679377 
L 163.920187 185.832489 
L 163.593991 207.229636 
z
" clip-path="url(#pcc95c365cd)" style="fill: #1b699f"/>
    <path d="M 114.789094 216.184445 
L 121.52232 210.119861 
L 121.442865 204.061056 
L 114.680914 210.082935 
z
" clip-path="url(#pcc95c365cd)" style="fill: #0d324b"/>
    <path d="M 121.52232 210.119861 
L 131.235767 213.166781 
L 131.137956 198.286683 
L 121.327879 195.29293 
z
" clip-path="url(#pcc95c365cd)" style="fill: #1b699f"/>
    <path d="M 114.789094 216.184445 
L 114.66956 209.442552 
L 121.434526 203.425187 
L 121.52232 210.119861 
z
" clip-path="url(#pcc95c365cd)" style="fill: #1b699f"/>
    <path d="M 147.503093 210.182023 
L 147.56859 195.354003 
L 157.528171 198.348449 
L 157.363088 213.22964 
z
" clip-path="url(#pcc95c365cd)" style="fill: #0d324b"/>
    <path d="M 176.986879 138.16676 
L 187.118853 140.839466 
L 193.085949 135.577871 
L 183.03236 132.963873 
z
" clip-path="url(#pcc95c365cd)" style="fill: #185b8a"/>
    <path d="M 179.511316 204.309097 
L 189.44159 207.291139 
L 191.005868 159.385462 
L 180.748139 156.58001 
z
" clip-path="url(#pcc95c365cd)" style="fill: #1b699f"/>
    <path d="M 88.525694 216.120905 
L 95.547479 210.057713 
L 105.114444 213.103935 
L 98.160092 219.235564 
z
" clip-path="url(#pcc95c365cd)" style="fill: #113f60"/>
    <path d="M 114.789094 216.184445 
L 121.52232 210.119861 
L 131.235767 213.166781 
L 124.573256 219.299825 
z
" clip-path="url(#pcc95c365cd)" style="fill: #113f60"/>
    <path d="M 141.058559 216.248 
L 147.503093 210.182023 
L 157.363088 213.22964 
L 150.992553 219.364101 
z
" clip-path="url(#pcc95c365cd)" style="fill: #113f60"/>
    <path d="M 167.33409 216.311569 
L 173.489801 210.244199 
L 183.49641 213.292514 
L 177.417986 219.428392 
z
" clip-path="url(#pcc95c365cd)" style="fill: #113f60"/>
    <path d="M 78.999119 213.041105 
L 88.525694 216.120905 
L 88.477328 214.759363 
L 78.942285 211.684363 
z
" clip-path="url(#pcc95c365cd)" style="fill: #1b699f"/>
    <path d="M 78.999119 213.041105 
L 88.525694 216.120905 
L 88.451496 214.03218 
L 78.911931 210.959749 
z
" clip-path="url(#pcc95c365cd)" style="fill: #1b699f"/>
    <path d="M 78.999119 213.041105 
L 88.525694 216.120905 
L 88.451496 214.03218 
L 78.911931 210.959749 
z
" clip-path="url(#pcc95c365cd)" style="fill: #1b699f"/>
    <path d="M 105.114444 213.103935 
L 105.070588 211.294262 
L 114.756895 214.368366 
L 114.789094 216.184445 
z
" clip-path="url(#pcc95c365cd)" style="fill: #0d324b"/>
    <path d="M 141.058559 216.248 
L 147.503093 210.182023 
L 147.550378 199.477199 
L 141.059299 205.467345 
z
" clip-path="url(#pcc95c365cd)" style="fill: #0d324b"/>
    <path d="M 173.489801 210.244199 
L 173.904354 191.361134 
L 184.041549 194.341445 
L 183.49641 213.292514 
z
" clip-path="url(#pcc95c365cd)" style="fill: #0d324b"/>
    <path d="M 88.461186 214.304957 
L 98.107139 217.41318 
L 105.070588 211.294262 
L 95.492227 208.254417 
z
" clip-path="url(#pcc95c365cd)" style="fill: #185b8a"/>
    <path d="M 154.106746 169.558907 
L 164.124754 172.413622 
L 170.356024 166.793765 
L 160.413792 164.001852 
z
" clip-path="url(#pcc95c365cd)" style="fill: #185b8a"/>
    <path d="M 147.503093 210.182023 
L 157.363088 213.22964 
L 157.600089 191.865433 
L 147.597122 188.894671 
z
" clip-path="url(#pcc95c365cd)" style="fill: #1b699f"/>
    <path d="M 131.165155 202.424524 
L 141.059299 205.467345 
L 147.550378 199.477199 
L 137.729241 196.501358 
z
" clip-path="url(#pcc95c365cd)" style="fill: #185b8a"/>
    <path d="M 183.49641 213.292514 
L 189.44159 207.291139 
L 190.407195 177.719685 
L 184.35319 183.507626 
z
" clip-path="url(#pcc95c365cd)" style="fill: #0d324b"/>
    <path d="M 105.114444 213.103935 
L 114.789094 216.184445 
L 114.680914 210.082935 
L 104.967102 207.024049 
z
" clip-path="url(#pcc95c365cd)" style="fill: #1b699f"/>
    <path d="M 141.058559 216.248 
L 141.059584 201.314479 
L 147.56859 195.354003 
L 147.503093 210.182023 
z
" clip-path="url(#pcc95c365cd)" style="fill: #1b699f"/>
    <path d="M 131.235767 213.166781 
L 131.191005 206.357099 
L 141.059028 209.41408 
L 141.058559 216.248 
z
" clip-path="url(#pcc95c365cd)" style="fill: #0d324b"/>
    <path d="M 170.577102 155.323386 
L 180.708673 158.102993 
L 186.767968 152.631056 
L 176.714538 149.912719 
z
" clip-path="url(#pcc95c365cd)" style="fill: #185b8a"/>
    <path d="M 164.040499 177.940436 
L 174.135146 180.848505 
L 180.267609 175.123678 
L 170.250288 172.279711 
z
" clip-path="url(#pcc95c365cd)" style="fill: #185b8a"/>
    <path d="M 147.597122 188.894671 
L 157.600089 191.865433 
L 163.917371 186.017194 
L 153.989696 183.111926 
z
" clip-path="url(#pcc95c365cd)" style="fill: #185b8a"/>
    <path d="M 98.160092 219.235564 
L 105.114444 213.103935 
L 105.070588 211.294262 
L 98.107139 217.41318 
z
" clip-path="url(#pcc95c365cd)" style="fill: #0d324b"/>
    <path d="M 98.160092 219.235564 
L 98.107139 217.41318 
L 105.070588 211.294262 
L 105.114444 213.103935 
z
" clip-path="url(#pcc95c365cd)" style="fill: #1b699f"/>
    <path d="M 131.235767 213.166781 
L 141.058559 216.248 
L 141.059299 205.467345 
L 131.165155 202.424524 
z
" clip-path="url(#pcc95c365cd)" style="fill: #1b699f"/>
    <path d="M 157.363088 213.22964 
L 157.48023 202.669983 
L 167.523497 205.714173 
L 167.33409 216.311569 
z
" clip-path="url(#pcc95c365cd)" style="fill: #0d324b"/>
    <path d="M 167.33409 216.311569 
L 167.673997 197.293567 
L 173.904354 191.361134 
L 173.489801 210.244199 
z
" clip-path="url(#pcc95c365cd)" style="fill: #1b699f"/>
    <path d="M 114.66956 209.442552 
L 124.49799 212.533911 
L 131.191604 206.448307 
L 121.434526 203.425187 
z
" clip-path="url(#pcc95c365cd)" style="fill: #185b8a"/>
    <path d="M 173.489801 210.244199 
L 183.49641 213.292514 
L 184.35319 183.507626 
L 174.141317 180.567402 
z
" clip-path="url(#pcc95c365cd)" style="fill: #1b699f"/>
    <path d="M 167.33409 216.311569 
L 173.489801 210.244199 
L 173.961242 188.769888 
L 167.720649 194.683383 
z
" clip-path="url(#pcc95c365cd)" style="fill: #0d324b"/>
    <path d="M 124.573256 219.299825 
L 131.235767 213.166781 
L 131.191604 206.448307 
L 124.49799 212.533911 
z
" clip-path="url(#pcc95c365cd)" style="fill: #0d324b"/>
    <path d="M 124.573256 219.299825 
L 124.496968 212.442054 
L 131.191005 206.357099 
L 131.235767 213.166781 
z
" clip-path="url(#pcc95c365cd)" style="fill: #1b699f"/>
    <path d="M 98.160092 219.235564 
L 105.114444 213.103935 
L 114.789094 216.184445 
L 107.904156 222.385676 
z
" clip-path="url(#pcc95c365cd)" style="fill: #113f60"/>
    <path d="M 124.573256 219.299825 
L 131.235767 213.166781 
L 141.058559 216.248 
L 134.4688 222.45067 
z
" clip-path="url(#pcc95c365cd)" style="fill: #113f60"/>
    <path d="M 150.992553 219.364101 
L 157.363088 213.22964 
L 167.33409 216.311569 
L 161.039649 222.51568 
z
" clip-path="url(#pcc95c365cd)" style="fill: #113f60"/>
    <path d="M 88.525694 216.120905 
L 98.160092 219.235564 
L 98.107139 217.41318 
L 88.461186 214.304957 
z
" clip-path="url(#pcc95c365cd)" style="fill: #1b699f"/>
    <path d="M 114.789094 216.184445 
L 114.758507 214.459276 
L 124.553996 217.568542 
L 124.573256 219.299825 
z
" clip-path="url(#pcc95c365cd)" style="fill: #0d324b"/>
    <path d="M 150.992553 219.364101 
L 151.065017 208.729568 
L 157.48023 202.669983 
L 157.363088 213.22964 
z
" clip-path="url(#pcc95c365cd)" style="fill: #1b699f"/>
    <path d="M 98.107139 217.41318 
L 107.863026 220.556827 
L 114.756895 214.368366 
L 105.070588 211.294262 
z
" clip-path="url(#pcc95c365cd)" style="fill: #185b8a"/>
    <path d="M 157.363088 213.22964 
L 167.33409 216.311569 
L 167.720649 194.683383 
L 157.602153 191.679377 
z
" clip-path="url(#pcc95c365cd)" style="fill: #1b699f"/>
    <path d="M 141.058559 216.248 
L 141.05894 210.694545 
L 151.030529 213.790884 
L 150.992553 219.364101 
z
" clip-path="url(#pcc95c365cd)" style="fill: #0d324b"/>
    <path d="M 114.789094 216.184445 
L 124.573256 219.299825 
L 124.49799 212.533911 
L 114.66956 209.442552 
z
" clip-path="url(#pcc95c365cd)" style="fill: #1b699f"/>
    <path d="M 150.992553 219.364101 
L 157.363088 213.22964 
L 157.528171 198.348449 
L 151.094676 204.3769 
z
" clip-path="url(#pcc95c365cd)" style="fill: #0d324b"/>
    <path d="M 187.276215 135.5513 
L 197.559513 138.233496 
L 203.463852 132.953482 
L 193.261677 130.33073 
z
" clip-path="url(#pcc95c365cd)" style="fill: #185b8a"/>
    <path d="M 107.904156 222.385676 
L 107.865085 220.648378 
L 114.758507 214.459276 
L 114.789094 216.184445 
z
" clip-path="url(#pcc95c365cd)" style="fill: #1b699f"/>
    <path d="M 107.904156 222.385676 
L 114.789094 216.184445 
L 114.756895 214.368366 
L 107.863026 220.556827 
z
" clip-path="url(#pcc95c365cd)" style="fill: #0d324b"/>
    <path d="M 174.141317 180.567402 
L 184.35319 183.507626 
L 190.407195 177.719685 
L 180.27484 174.844646 
z
" clip-path="url(#pcc95c365cd)" style="fill: #185b8a"/>
    <path d="M 157.602153 191.679377 
L 167.720649 194.683383 
L 173.961242 188.769888 
L 163.920187 185.832489 
z
" clip-path="url(#pcc95c365cd)" style="fill: #185b8a"/>
    <path d="M 167.33409 216.311569 
L 167.525141 205.622155 
L 177.683582 208.700728 
L 177.417986 219.428392 
z
" clip-path="url(#pcc95c365cd)" style="fill: #0d324b"/>
    <path d="M 177.417986 219.428392 
L 183.49641 213.292514 
L 184.041549 194.341445 
L 177.890534 200.341728 
z
" clip-path="url(#pcc95c365cd)" style="fill: #0d324b"/>
    <path d="M 180.748139 156.58001 
L 191.005868 159.385462 
L 196.990192 153.86285 
L 186.812944 151.119644 
z
" clip-path="url(#pcc95c365cd)" style="fill: #185b8a"/>
    <path d="M 141.059584 201.314479 
L 151.094676 204.3769 
L 157.528171 198.348449 
L 147.56859 195.354003 
z
" clip-path="url(#pcc95c365cd)" style="fill: #185b8a"/>
    <path d="M 124.496968 212.442054 
L 134.438416 215.568437 
L 141.059028 209.41408 
L 131.191005 206.357099 
z
" clip-path="url(#pcc95c365cd)" style="fill: #185b8a"/>
    <path d="M 134.4688 222.45067 
L 134.444109 216.858009 
L 141.05894 210.694545 
L 141.058559 216.248 
z
" clip-path="url(#pcc95c365cd)" style="fill: #1b699f"/>
    <path d="M 141.058559 216.248 
L 150.992553 219.364101 
L 151.094676 204.3769 
L 141.059584 201.314479 
z
" clip-path="url(#pcc95c365cd)" style="fill: #1b699f"/>
    <path d="M 134.4688 222.45067 
L 141.058559 216.248 
L 141.059028 209.41408 
L 134.438416 215.568437 
z
" clip-path="url(#pcc95c365cd)" style="fill: #0d324b"/>
    <path d="M 107.904156 222.385676 
L 114.789094 216.184445 
L 124.573256 219.299825 
L 117.759767 225.571849 
z
" clip-path="url(#pcc95c365cd)" style="fill: #113f60"/>
    <path d="M 134.4688 222.45067 
L 141.058559 216.248 
L 150.992553 219.364101 
L 144.47764 225.63759 
z
" clip-path="url(#pcc95c365cd)" style="fill: #113f60"/>
    <path d="M 161.039649 222.51568 
L 167.33409 216.311569 
L 177.417986 219.428392 
L 171.201789 225.703346 
z
" clip-path="url(#pcc95c365cd)" style="fill: #113f60"/>
    <path d="M 98.160092 219.235564 
L 107.904156 222.385676 
L 107.863026 220.556827 
L 98.107139 217.41318 
z
" clip-path="url(#pcc95c365cd)" style="fill: #1b699f"/>
    <path d="M 124.573256 219.299825 
L 124.551966 217.386065 
L 134.460321 220.53012 
L 134.4688 222.45067 
z
" clip-path="url(#pcc95c365cd)" style="fill: #0d324b"/>
    <path d="M 161.039649 222.51568 
L 167.33409 216.311569 
L 167.523497 205.714173 
L 161.185493 211.843056 
z
" clip-path="url(#pcc95c365cd)" style="fill: #0d324b"/>
    <path d="M 161.039649 222.51568 
L 161.186759 211.750377 
L 167.525141 205.622155 
L 167.33409 216.311569 
z
" clip-path="url(#pcc95c365cd)" style="fill: #1b699f"/>
    <path d="M 167.33409 216.311569 
L 177.417986 219.428392 
L 177.890534 200.341728 
L 167.673997 197.293567 
z
" clip-path="url(#pcc95c365cd)" style="fill: #1b699f"/>
    <path d="M 107.865085 220.648378 
L 117.732189 223.828383 
L 124.553996 217.568542 
L 114.758507 214.459276 
z
" clip-path="url(#pcc95c365cd)" style="fill: #185b8a"/>
    <path d="M 151.065017 208.729568 
L 161.185493 211.843056 
L 167.523497 205.714173 
L 157.48023 202.669983 
z
" clip-path="url(#pcc95c365cd)" style="fill: #185b8a"/>
    <path d="M 167.673997 197.293567 
L 177.890534 200.341728 
L 184.041549 194.341445 
L 173.904354 191.361134 
z
" clip-path="url(#pcc95c365cd)" style="fill: #185b8a"/>
    <path d="M 150.992553 219.364101 
L 151.030529 213.790884 
L 161.116079 216.922611 
L 161.039649 222.51568 
z
" clip-path="url(#pcc95c365cd)" style="fill: #0d324b"/>
    <path d="M 124.573256 219.299825 
L 134.4688 222.45067 
L 134.438416 215.568437 
L 124.496968 212.442054 
z
" clip-path="url(#pcc95c365cd)" style="fill: #1b699f"/>
    <path d="M 117.759767 225.571849 
L 124.573256 219.299825 
L 124.553996 217.568542 
L 117.732189 223.828383 
z
" clip-path="url(#pcc95c365cd)" style="fill: #0d324b"/>
    <path d="M 117.759767 225.571849 
L 117.729283 223.644619 
L 124.551966 217.386065 
L 124.573256 219.299825 
z
" clip-path="url(#pcc95c365cd)" style="fill: #1b699f"/>
    <path d="M 150.992553 219.364101 
L 161.039649 222.51568 
L 161.185493 211.843056 
L 151.065017 208.729568 
z
" clip-path="url(#pcc95c365cd)" style="fill: #1b699f"/>
    <path d="M 134.444109 216.858009 
L 144.491114 220.024988 
L 151.030529 213.790884 
L 141.05894 210.694545 
z
" clip-path="url(#pcc95c365cd)" style="fill: #185b8a"/>
    <path d="M 144.47764 225.63759 
L 150.992553 219.364101 
L 151.030529 213.790884 
L 144.491114 220.024988 
z
" clip-path="url(#pcc95c365cd)" style="fill: #0d324b"/>
    <path d="M 144.47764 225.63759 
L 144.491114 220.024988 
L 151.030529 213.790884 
L 150.992553 219.364101 
z
" clip-path="url(#pcc95c365cd)" style="fill: #1b699f"/>
    <path d="M 117.759767 225.571849 
L 124.573256 219.299825 
L 134.4688 222.45067 
L 127.728853 228.794707 
z
" clip-path="url(#pcc95c365cd)" style="fill: #113f60"/>
    <path d="M 144.47764 225.63759 
L 150.992553 219.364101 
L 161.039649 222.51568 
L 154.601732 228.861207 
z
" clip-path="url(#pcc95c365cd)" style="fill: #113f60"/>
    <path d="M 107.904156 222.385676 
L 117.759767 225.571849 
L 117.732189 223.828383 
L 107.865085 220.648378 
z
" clip-path="url(#pcc95c365cd)" style="fill: #1b699f"/>
    <path d="M 134.4688 222.45067 
L 134.46113 220.713246 
L 144.481826 223.893997 
L 144.47764 225.63759 
z
" clip-path="url(#pcc95c365cd)" style="fill: #0d324b"/>
    <path d="M 171.201789 225.703346 
L 177.417986 219.428392 
L 177.683582 208.700728 
L 171.424618 214.89944 
z
" clip-path="url(#pcc95c365cd)" style="fill: #0d324b"/>
    <path d="M 117.729283 223.644619 
L 127.711369 226.860627 
L 134.460321 220.53012 
L 124.551966 217.386065 
z
" clip-path="url(#pcc95c365cd)" style="fill: #185b8a"/>
    <path d="M 161.186759 211.750377 
L 171.424618 214.89944 
L 177.683582 208.700728 
L 167.525141 205.622155 
z
" clip-path="url(#pcc95c365cd)" style="fill: #185b8a"/>
    <path d="M 134.4688 222.45067 
L 144.47764 225.63759 
L 144.491114 220.024988 
L 134.444109 216.858009 
z
" clip-path="url(#pcc95c365cd)" style="fill: #1b699f"/>
    <path d="M 161.039649 222.51568 
L 161.131184 215.81732 
L 171.340435 218.981073 
L 171.201789 225.703346 
z
" clip-path="url(#pcc95c365cd)" style="fill: #0d324b"/>
    <path d="M 127.728853 228.794707 
L 127.713036 227.045046 
L 134.46113 220.713246 
L 134.4688 222.45067 
z
" clip-path="url(#pcc95c365cd)" style="fill: #1b699f"/>
    <path d="M 127.728853 228.794707 
L 134.4688 222.45067 
L 134.460321 220.53012 
L 127.711369 226.860627 
z
" clip-path="url(#pcc95c365cd)" style="fill: #0d324b"/>
    <path d="M 161.039649 222.51568 
L 171.201789 225.703346 
L 171.424618 214.89944 
L 161.186759 211.750377 
z
" clip-path="url(#pcc95c365cd)" style="fill: #1b699f"/>
    <path d="M 144.491114 220.024988 
L 154.654255 223.228575 
L 161.116079 216.922611 
L 151.030529 213.790884 
z
" clip-path="url(#pcc95c365cd)" style="fill: #185b8a"/>
    <path d="M 154.601732 228.861207 
L 161.039649 222.51568 
L 161.116079 216.922611 
L 154.654255 223.228575 
z
" clip-path="url(#pcc95c365cd)" style="fill: #0d324b"/>
    <path d="M 154.601732 228.861207 
L 154.664635 222.115408 
L 161.131184 215.81732 
L 161.039649 222.51568 
z
" clip-path="url(#pcc95c365cd)" style="fill: #1b699f"/>
    <path d="M 127.728853 228.794707 
L 134.4688 222.45067 
L 144.47764 225.63759 
L 137.813385 232.054887 
z
" clip-path="url(#pcc95c365cd)" style="fill: #113f60"/>
    <path d="M 154.601732 228.861207 
L 161.039649 222.51568 
L 171.201789 225.703346 
L 164.843079 232.12216 
z
" clip-path="url(#pcc95c365cd)" style="fill: #113f60"/>
    <path d="M 117.759767 225.571849 
L 127.728853 228.794707 
L 127.711369 226.860627 
L 117.729283 223.644619 
z
" clip-path="url(#pcc95c365cd)" style="fill: #1b699f"/>
    <path d="M 144.47764 225.63759 
L 144.482046 223.802114 
L 154.618909 227.019208 
L 154.601732 228.861207 
z
" clip-path="url(#pcc95c365cd)" style="fill: #0d324b"/>
    <path d="M 127.713036 227.045046 
L 137.809604 230.299003 
L 144.481826 223.893997 
L 134.46113 220.713246 
z
" clip-path="url(#pcc95c365cd)" style="fill: #185b8a"/>
    <path d="M 144.47764 225.63759 
L 154.601732 228.861207 
L 154.654255 223.228575 
L 144.491114 220.024988 
z
" clip-path="url(#pcc95c365cd)" style="fill: #1b699f"/>
    <path d="M 137.813385 232.054887 
L 144.47764 225.63759 
L 144.481826 223.893997 
L 137.809604 230.299003 
z
" clip-path="url(#pcc95c365cd)" style="fill: #0d324b"/>
    <path d="M 137.813385 232.054887 
L 137.809405 230.206471 
L 144.482046 223.802114 
L 144.47764 225.63759 
z
" clip-path="url(#pcc95c365cd)" style="fill: #1b699f"/>
    <path d="M 154.664635 222.115408 
L 164.953837 225.352236 
L 171.340435 218.981073 
L 161.131184 215.81732 
z
" clip-path="url(#pcc95c365cd)" style="fill: #185b8a"/>
    <path d="M 164.843079 232.12216 
L 171.201789 225.703346 
L 171.340435 218.981073 
L 164.953837 225.352236 
z
" clip-path="url(#pcc95c365cd)" style="fill: #0d324b"/>
    <path d="M 137.813385 232.054887 
L 144.47764 225.63759 
L 154.601732 228.861207 
L 148.015379 235.353041 
z
" clip-path="url(#pcc95c365cd)" style="fill: #113f60"/>
    <path d="M 127.728853 228.794707 
L 137.813385 232.054887 
L 137.809604 230.299003 
L 127.713036 227.045046 
z
" clip-path="url(#pcc95c365cd)" style="fill: #1b699f"/>
    <path d="M 154.601732 228.861207 
L 154.618909 227.019208 
L 164.873322 230.273609 
L 164.843079 232.12216 
z
" clip-path="url(#pcc95c365cd)" style="fill: #0d324b"/>
    <path d="M 137.809405 230.206471 
L 148.024367 233.498046 
L 154.618909 227.019208 
L 144.482046 223.802114 
z
" clip-path="url(#pcc95c365cd)" style="fill: #185b8a"/>
    <path d="M 154.601732 228.861207 
L 164.843079 232.12216 
L 164.953837 225.352236 
L 154.664635 222.115408 
z
" clip-path="url(#pcc95c365cd)" style="fill: #1b699f"/>
    <path d="M 148.015379 235.353041 
L 154.601732 228.861207 
L 154.618909 227.019208 
L 148.024367 233.498046 
z
" clip-path="url(#pcc95c365cd)" style="fill: #0d324b"/>
    <path d="M 148.015379 235.353041 
L 148.024367 233.498046 
L 154.618909 227.019208 
L 154.601732 228.861207 
z
" clip-path="url(#pcc95c365cd)" style="fill: #1b699f"/>
    <path d="M 148.015379 235.353041 
L 154.601732 228.861207 
L 164.843079 232.12216 
L 158.3369 238.689836 
z
" clip-path="url(#pcc95c365cd)" style="fill: #113f60"/>
    <path d="M 137.813385 232.054887 
L 148.015379 235.353041 
L 148.024367 233.498046 
L 137.809405 230.206471 
z
" clip-path="url(#pcc95c365cd)" style="fill: #1b699f"/>
    <path d="M 148.024367 233.498046 
L 158.359161 236.828235 
L 164.873322 230.273609 
L 154.618909 227.019208 
z
" clip-path="url(#pcc95c365cd)" style="fill: #185b8a"/>
    <path d="M 158.3369 238.689836 
L 164.843079 232.12216 
L 164.873322 230.273609 
L 158.359161 236.828235 
z
" clip-path="url(#pcc95c365cd)" style="fill: #0d324b"/>
    <path d="M 148.015379 235.353041 
L 158.3369 238.689836 
L 158.359161 236.828235 
L 148.024367 233.498046 
z
" clip-path="url(#pcc95c365cd)" style="fill: #1b699f"/>
   </g>
   <g id="text_12">
    <!-- Shaded -->
    <g transform="translate(116.165199 87.364364)scale(0.12 -0.12)">
     <defs>
      <path id="DejaVuSans-53" d="M 3425 4513 
L 3425 3897 
Q 3066 4069 2747 4153 
Q 2428 4238 2131 4238 
Q 1616 4238 1336 4038 
Q 1056 3838 1056 3469 
Q 1056 3159 1242 3001 
Q 1428 2844 1947 2747 
L 2328 2669 
Q 3034 2534 3370 2195 
Q 3706 1856 3706 1288 
Q 3706 609 3251 259 
Q 2797 -91 1919 -91 
Q 1588 -91 1214 -16 
Q 841 59 441 206 
L 441 856 
Q 825 641 1194 531 
Q 1563 422 1919 422 
Q 2459 422 2753 634 
Q 3047 847 3047 1241 
Q 3047 1584 2836 1778 
Q 2625 1972 2144 2069 
L 1759 2144 
Q 1053 2284 737 2584 
Q 422 2884 422 3419 
Q 422 4038 858 4394 
Q 1294 4750 2059 4750 
Q 2388 4750 2728 4690 
Q 3069 4631 3425 4513 
z
" transform="scale(0.015625)"/>
      <path id="DejaVuSans-68" d="M 3513 2113 
L 3513 0 
L 2938 0 
L 2938 2094 
Q 2938 2591 2744 2837 
Q 2550 3084 2163 3084 
Q 1697 3084 1428 2787 
Q 1159 2491 1159 1978 
L 1159 0 
L 581 0 
L 581 4863 
L 1159 4863 
L 1159 2956 
Q 1366 3272 1645 3428 
Q 1925 3584 2291 3584 
Q 2894 3584 3203 3211 
Q 3513 2838 3513 2113 
z
" transform="scale(0.015625)"/>
      <path id="DejaVuSans-61" d="M 2194 1759 
Q 1497 1759 1228 1600 
Q 959 1441 959 1056 
Q 959 750 1161 570 
Q 1363 391 1709 391 
Q 2188 391 2477 730 
Q 2766 1069 2766 1631 
L 2766 1759 
L 2194 1759 
z
M 3341 1997 
L 3341 0 
L 2766 0 
L 2766 531 
Q 2569 213 2275 61 
Q 1981 -91 1556 -91 
Q 1019 -91 701 211 
Q 384 513 384 1019 
Q 384 1609 779 1909 
Q 1175 2209 1959 2209 
L 2766 2209 
L 2766 2266 
Q 2766 2663 2505 2880 
Q 2244 3097 1772 3097 
Q 1472 3097 1187 3025 
Q 903 2953 641 2809 
L 641 3341 
Q 956 3463 1253 3523 
Q 1550 3584 1831 3584 
Q 2591 3584 2966 3190 
Q 3341 2797 3341 1997 
z
" transform="scale(0.015625)"/>
      <path id="DejaVuSans-64" d="M 2906 2969 
L 2906 4863 
L 3481 4863 
L 3481 0 
L 2906 0 
L 2906 525 
Q 2725 213 2448 61 
Q 2172 -91 1784 -91 
Q 1150 -91 751 415 
Q 353 922 353 1747 
Q 353 2572 751 3078 
Q 1150 3584 1784 3584 
Q 2172 3584 2448 3432 
Q 2725 3281 2906 2969 
z
M 947 1747 
Q 947 1113 1208 752 
Q 1469 391 1925 391 
Q 2381 391 2643 752 
Q 2906 1113 2906 1747 
Q 2906 2381 2643 2742 
Q 2381 3103 1925 3103 
Q 1469 3103 1208 2742 
Q 947 2381 947 1747 
z
" transform="scale(0.015625)"/>
      <path id="DejaVuSans-65" d="M 3597 1894 
L 3597 1613 
L 953 1613 
Q 991 1019 1311 708 
Q 1631 397 2203 397 
Q 2534 397 2845 478 
Q 3156 559 3463 722 
L 3463 178 
Q 3153 47 2828 -22 
Q 2503 -91 2169 -91 
Q 1331 -91 842 396 
Q 353 884 353 1716 
Q 353 2575 817 3079 
Q 1281 3584 2069 3584 
Q 2775 3584 3186 3129 
Q 3597 2675 3597 1894 
z
M 3022 2063 
Q 3016 2534 2758 2815 
Q 2500 3097 2075 3097 
Q 1594 3097 1305 2825 
Q 1016 2553 972 2059 
L 3022 2063 
z
" transform="scale(0.015625)"/>
     </defs>
     <use xlink:href="#DejaVuSans-53"/>
     <use xlink:href="#DejaVuSans-68" x="63.476562"/>
     <use xlink:href="#DejaVuSans-61" x="126.855469"/>
     <use xlink:href="#DejaVuSans-64" x="188.134766"/>
     <use xlink:href="#DejaVuSans-65" x="251.611328"/>
     <use xlink:href="#DejaVuSans-64" x="313.134766"/>
    </g>
   </g>
  </g>
 </g>
 <defs>
  <clipPath id="pcc95c365cd">
   <rect x="57.6" y="93.364364" width="162.327273" height="162.327273"/>
  </clipPath>
 </defs>
</svg>
