<?xml version="1.0" encoding="utf-8" standalone="no"?>
<!DOCTYPE svg PUBLIC "-//W3C//DTD SVG 1.1//EN"
  "http://www.w3.org/Graphics/SVG/1.1/DTD/svg11.dtd">
<svg xmlns:xlink="http://www.w3.org/1999/xlink" width="460.8pt" height="345.6pt" viewBox="0 0 460.8 345.6" xmlns="http://www.w3.org/2000/svg" version="1.1">
 <metadata>
  <rdf:RDF xmlns:dc="http://purl.org/dc/elements/1.1/" xmlns:cc="http://creativecommons.org/ns#" xmlns:rdf="http://www.w3.org/1999/02/22-rdf-syntax-ns#">
   <cc:Work>
    <dc:type rdf:resource="http://purl.org/dc/dcmitype/StillImage"/>
    <dc:date>2022-02-21T17:50:42.960517</dc:date>
    <dc:format>image/svg+xml</dc:format>
    <dc:creator>
     <cc:Agent>
      <dc:title>Matplotlib v3.5.1, https://matplotlib.org/</dc:title>
     </cc:Agent>
    </dc:creator>
   </cc:Work>
  </rdf:RDF>
 </metadata>
 <defs>
  <style type="text/css">*{stroke-linejoin: round; stroke-linecap: butt}</style>
 </defs>
 <g id="figure_1">
  <g id="patch_1">
   <path d="M 0 345.6 
L 460.8 345.6 
L 460.8 0 
L 0 0 
z
" style="fill: #ffffff"/>
  </g>
  <g id="axes_1">
   <g id="patch_2">
    <path d="M 57.6 307.584 
L 414.72 307.584 
L 414.72 41.472 
L 57.6 41.472 
z
" style="fill: #ffffff"/>
   </g>
   <g id="matplotlib.axis_1">
    <g id="xtick_1">
     <g id="line2d_1">
      <defs>
       <path id="mec809153ad" d="M 0 0 
L 0 3.5 
" style="stroke: #000000; stroke-width: 0.8"/>
      </defs>
      <g>
       <use xlink:href="#mec809153ad" x="82.850909" y="307.584" style="stroke: #000000; stroke-width: 0.8"/>
      </g>
     </g>
     <g id="text_1">
      <!-- 2.5 -->
      <g transform="translate(74.899347 322.182437)scale(0.1 -0.1)">
       <defs>
        <path id="DejaVuSans-32" d="M 1228 531 
L 3431 531 
L 3431 0 
L 469 0 
L 469 531 
Q 828 903 1448 1529 
Q 2069 2156 2228 2338 
Q 2531 2678 2651 2914 
Q 2772 3150 2772 3378 
Q 2772 3750 2511 3984 
Q 2250 4219 1831 4219 
Q 1534 4219 1204 4116 
Q 875 4013 500 3803 
L 500 4441 
Q 881 4594 1212 4672 
Q 1544 4750 1819 4750 
Q 2544 4750 2975 4387 
Q 3406 4025 3406 3419 
Q 3406 3131 3298 2873 
Q 3191 2616 2906 2266 
Q 2828 2175 2409 1742 
Q 1991 1309 1228 531 
z
" transform="scale(0.015625)"/>
        <path id="DejaVuSans-2e" d="M 684 794 
L 1344 794 
L 1344 0 
L 684 0 
L 684 794 
z
" transform="scale(0.015625)"/>
        <path id="DejaVuSans-35" d="M 691 4666 
L 3169 4666 
L 3169 4134 
L 1269 4134 
L 1269 2991 
Q 1406 3038 1543 3061 
Q 1681 3084 1819 3084 
Q 2600 3084 3056 2656 
Q 3513 2228 3513 1497 
Q 3513 744 3044 326 
Q 2575 -91 1722 -91 
Q 1428 -91 1123 -41 
Q 819 9 494 109 
L 494 744 
Q 775 591 1075 516 
Q 1375 441 1709 441 
Q 2250 441 2565 725 
Q 2881 1009 2881 1497 
Q 2881 1984 2565 2268 
Q 2250 2553 1709 2553 
Q 1456 2553 1204 2497 
Q 953 2441 691 2322 
L 691 4666 
z
" transform="scale(0.015625)"/>
       </defs>
       <use xlink:href="#DejaVuSans-32"/>
       <use xlink:href="#DejaVuSans-2e" x="63.623047"/>
       <use xlink:href="#DejaVuSans-35" x="95.410156"/>
      </g>
     </g>
    </g>
    <g id="xtick_2">
     <g id="line2d_2">
      <g>
       <use xlink:href="#mec809153ad" x="127.941818" y="307.584" style="stroke: #000000; stroke-width: 0.8"/>
      </g>
     </g>
     <g id="text_2">
      <!-- 5.0 -->
      <g transform="translate(119.990256 322.182437)scale(0.1 -0.1)">
       <defs>
        <path id="DejaVuSans-30" d="M 2034 4250 
Q 1547 4250 1301 3770 
Q 1056 3291 1056 2328 
Q 1056 1369 1301 889 
Q 1547 409 2034 409 
Q 2525 409 2770 889 
Q 3016 1369 3016 2328 
Q 3016 3291 2770 3770 
Q 2525 4250 2034 4250 
z
M 2034 4750 
Q 2819 4750 3233 4129 
Q 3647 3509 3647 2328 
Q 3647 1150 3233 529 
Q 2819 -91 2034 -91 
Q 1250 -91 836 529 
Q 422 1150 422 2328 
Q 422 3509 836 4129 
Q 1250 4750 2034 4750 
z
" transform="scale(0.015625)"/>
       </defs>
       <use xlink:href="#DejaVuSans-35"/>
       <use xlink:href="#DejaVuSans-2e" x="63.623047"/>
       <use xlink:href="#DejaVuSans-30" x="95.410156"/>
      </g>
     </g>
    </g>
    <g id="xtick_3">
     <g id="line2d_3">
      <g>
       <use xlink:href="#mec809153ad" x="173.032727" y="307.584" style="stroke: #000000; stroke-width: 0.8"/>
      </g>
     </g>
     <g id="text_3">
      <!-- 7.5 -->
      <g transform="translate(165.081165 322.182437)scale(0.1 -0.1)">
       <defs>
        <path id="DejaVuSans-37" d="M 525 4666 
L 3525 4666 
L 3525 4397 
L 1831 0 
L 1172 0 
L 2766 4134 
L 525 4134 
L 525 4666 
z
" transform="scale(0.015625)"/>
       </defs>
       <use xlink:href="#DejaVuSans-37"/>
       <use xlink:href="#DejaVuSans-2e" x="63.623047"/>
       <use xlink:href="#DejaVuSans-35" x="95.410156"/>
      </g>
     </g>
    </g>
    <g id="xtick_4">
     <g id="line2d_4">
      <g>
       <use xlink:href="#mec809153ad" x="218.123636" y="307.584" style="stroke: #000000; stroke-width: 0.8"/>
      </g>
     </g>
     <g id="text_4">
      <!-- 10.0 -->
      <g transform="translate(206.990824 322.182437)scale(0.1 -0.1)">
       <defs>
        <path id="DejaVuSans-31" d="M 794 531 
L 1825 531 
L 1825 4091 
L 703 3866 
L 703 4441 
L 1819 4666 
L 2450 4666 
L 2450 531 
L 3481 531 
L 3481 0 
L 794 0 
L 794 531 
z
" transform="scale(0.015625)"/>
       </defs>
       <use xlink:href="#DejaVuSans-31"/>
       <use xlink:href="#DejaVuSans-30" x="63.623047"/>
       <use xlink:href="#DejaVuSans-2e" x="127.246094"/>
       <use xlink:href="#DejaVuSans-30" x="159.033203"/>
      </g>
     </g>
    </g>
    <g id="xtick_5">
     <g id="line2d_5">
      <g>
       <use xlink:href="#mec809153ad" x="263.214545" y="307.584" style="stroke: #000000; stroke-width: 0.8"/>
      </g>
     </g>
     <g id="text_5">
      <!-- 12.5 -->
      <g transform="translate(252.081733 322.182437)scale(0.1 -0.1)">
       <use xlink:href="#DejaVuSans-31"/>
       <use xlink:href="#DejaVuSans-32" x="63.623047"/>
       <use xlink:href="#DejaVuSans-2e" x="127.246094"/>
       <use xlink:href="#DejaVuSans-35" x="159.033203"/>
      </g>
     </g>
    </g>
    <g id="xtick_6">
     <g id="line2d_6">
      <g>
       <use xlink:href="#mec809153ad" x="308.305455" y="307.584" style="stroke: #000000; stroke-width: 0.8"/>
      </g>
     </g>
     <g id="text_6">
      <!-- 15.0 -->
      <g transform="translate(297.172642 322.182437)scale(0.1 -0.1)">
       <use xlink:href="#DejaVuSans-31"/>
       <use xlink:href="#DejaVuSans-35" x="63.623047"/>
       <use xlink:href="#DejaVuSans-2e" x="127.246094"/>
       <use xlink:href="#DejaVuSans-30" x="159.033203"/>
      </g>
     </g>
    </g>
    <g id="xtick_7">
     <g id="line2d_7">
      <g>
       <use xlink:href="#mec809153ad" x="353.396364" y="307.584" style="stroke: #000000; stroke-width: 0.8"/>
      </g>
     </g>
     <g id="text_7">
      <!-- 17.5 -->
      <g transform="translate(342.263551 322.182437)scale(0.1 -0.1)">
       <use xlink:href="#DejaVuSans-31"/>
       <use xlink:href="#DejaVuSans-37" x="63.623047"/>
       <use xlink:href="#DejaVuSans-2e" x="127.246094"/>
       <use xlink:href="#DejaVuSans-35" x="159.033203"/>
      </g>
     </g>
    </g>
    <g id="xtick_8">
     <g id="line2d_8">
      <g>
       <use xlink:href="#mec809153ad" x="398.487273" y="307.584" style="stroke: #000000; stroke-width: 0.8"/>
      </g>
     </g>
     <g id="text_8">
      <!-- 20.0 -->
      <g transform="translate(387.35446 322.182437)scale(0.1 -0.1)">
       <use xlink:href="#DejaVuSans-32"/>
       <use xlink:href="#DejaVuSans-30" x="63.623047"/>
       <use xlink:href="#DejaVuSans-2e" x="127.246094"/>
       <use xlink:href="#DejaVuSans-30" x="159.033203"/>
      </g>
     </g>
    </g>
   </g>
   <g id="matplotlib.axis_2">
    <g id="ytick_1">
     <g id="line2d_9">
      <defs>
       <path id="medf90f629c" d="M 0 0 
L -3.5 0 
" style="stroke: #000000; stroke-width: 0.8"/>
      </defs>
      <g>
       <use xlink:href="#medf90f629c" x="57.6" y="298.222194" style="stroke: #000000; stroke-width: 0.8"/>
      </g>
     </g>
     <g id="text_9">
      <!-- 0 -->
      <g transform="translate(44.2375 302.021412)scale(0.1 -0.1)">
       <use xlink:href="#DejaVuSans-30"/>
      </g>
     </g>
    </g>
    <g id="ytick_2">
     <g id="line2d_10">
      <g>
       <use xlink:href="#medf90f629c" x="57.6" y="254.077925" style="stroke: #000000; stroke-width: 0.8"/>
      </g>
     </g>
     <g id="text_10">
      <!-- 5 -->
      <g transform="translate(44.2375 257.877144)scale(0.1 -0.1)">
       <use xlink:href="#DejaVuSans-35"/>
      </g>
     </g>
    </g>
    <g id="ytick_3">
     <g id="line2d_11">
      <g>
       <use xlink:href="#medf90f629c" x="57.6" y="209.933656" style="stroke: #000000; stroke-width: 0.8"/>
      </g>
     </g>
     <g id="text_11">
      <!-- 10 -->
      <g transform="translate(37.875 213.732875)scale(0.1 -0.1)">
       <use xlink:href="#DejaVuSans-31"/>
       <use xlink:href="#DejaVuSans-30" x="63.623047"/>
      </g>
     </g>
    </g>
    <g id="ytick_4">
     <g id="line2d_12">
      <g>
       <use xlink:href="#medf90f629c" x="57.6" y="165.789387" style="stroke: #000000; stroke-width: 0.8"/>
      </g>
     </g>
     <g id="text_12">
      <!-- 15 -->
      <g transform="translate(37.875 169.588606)scale(0.1 -0.1)">
       <use xlink:href="#DejaVuSans-31"/>
       <use xlink:href="#DejaVuSans-35" x="63.623047"/>
      </g>
     </g>
    </g>
    <g id="ytick_5">
     <g id="line2d_13">
      <g>
       <use xlink:href="#medf90f629c" x="57.6" y="121.645119" style="stroke: #000000; stroke-width: 0.8"/>
      </g>
     </g>
     <g id="text_13">
      <!-- 20 -->
      <g transform="translate(37.875 125.444337)scale(0.1 -0.1)">
       <use xlink:href="#DejaVuSans-32"/>
       <use xlink:href="#DejaVuSans-30" x="63.623047"/>
      </g>
     </g>
    </g>
    <g id="ytick_6">
     <g id="line2d_14">
      <g>
       <use xlink:href="#medf90f629c" x="57.6" y="77.50085" style="stroke: #000000; stroke-width: 0.8"/>
      </g>
     </g>
     <g id="text_14">
      <!-- 25 -->
      <g transform="translate(37.875 81.300068)scale(0.1 -0.1)">
       <use xlink:href="#DejaVuSans-32"/>
       <use xlink:href="#DejaVuSans-35" x="63.623047"/>
      </g>
     </g>
    </g>
   </g>
   <g id="line2d_15">
    <path d="M 73.832727 295.488 
L 109.905455 289.51395 
L 145.978182 279.247297 
L 182.050909 264.604813 
L 218.123636 245.746255 
L 254.196364 222.69254 
L 290.269091 195.658787 
L 326.341818 164.237923 
L 362.414545 128.626862 
L 398.487273 88.843444 
" clip-path="url(#p2f66c32e72)" style="fill: none; stroke: #1f77b4; stroke-width: 1.5; stroke-linecap: square"/>
    <defs>
     <path id="ma861fee49c" d="M 0 3 
C 0.795609 3 1.55874 2.683901 2.12132 2.12132 
C 2.683901 1.55874 3 0.795609 3 0 
C 3 -0.795609 2.683901 -1.55874 2.12132 -2.12132 
C 1.55874 -2.683901 0.795609 -3 0 -3 
C -0.795609 -3 -1.55874 -2.683901 -2.12132 -2.12132 
C -2.683901 -1.55874 -3 -0.795609 -3 0 
C -3 0.795609 -2.683901 1.55874 -2.12132 2.12132 
C -1.55874 2.683901 -0.795609 3 0 3 
z
" style="stroke: #1f77b4"/>
    </defs>
    <g clip-path="url(#p2f66c32e72)">
     <use xlink:href="#ma861fee49c" x="73.832727" y="295.488" style="fill: #1f77b4; stroke: #1f77b4"/>
     <use xlink:href="#ma861fee49c" x="109.905455" y="289.51395" style="fill: #1f77b4; stroke: #1f77b4"/>
     <use xlink:href="#ma861fee49c" x="145.978182" y="279.247297" style="fill: #1f77b4; stroke: #1f77b4"/>
     <use xlink:href="#ma861fee49c" x="182.050909" y="264.604813" style="fill: #1f77b4; stroke: #1f77b4"/>
     <use xlink:href="#ma861fee49c" x="218.123636" y="245.746255" style="fill: #1f77b4; stroke: #1f77b4"/>
     <use xlink:href="#ma861fee49c" x="254.196364" y="222.69254" style="fill: #1f77b4; stroke: #1f77b4"/>
     <use xlink:href="#ma861fee49c" x="290.269091" y="195.658787" style="fill: #1f77b4; stroke: #1f77b4"/>
     <use xlink:href="#ma861fee49c" x="326.341818" y="164.237923" style="fill: #1f77b4; stroke: #1f77b4"/>
     <use xlink:href="#ma861fee49c" x="362.414545" y="128.626862" style="fill: #1f77b4; stroke: #1f77b4"/>
     <use xlink:href="#ma861fee49c" x="398.487273" y="88.843444" style="fill: #1f77b4; stroke: #1f77b4"/>
    </g>
   </g>
   <g id="line2d_16">
    <path d="M 73.832727 295.152955 
L 109.905455 289.243619 
L 145.978182 279.03659 
L 182.050909 264.542122 
L 218.123636 245.650138 
L 254.196364 222.66808 
L 290.269091 195.723469 
L 326.341818 164.751393 
L 362.414545 129.339827 
" clip-path="url(#p2f66c32e72)" style="fill: none; stroke: #ff7f0e; stroke-width: 1.5; stroke-linecap: square"/>
    <defs>
     <path id="m11b1c07a9f" d="M 0 3 
C 0.795609 3 1.55874 2.683901 2.12132 2.12132 
C 2.683901 1.55874 3 0.795609 3 0 
C 3 -0.795609 2.683901 -1.55874 2.12132 -2.12132 
C 1.55874 -2.683901 0.795609 -3 0 -3 
C -0.795609 -3 -1.55874 -2.683901 -2.12132 -2.12132 
C -2.683901 -1.55874 -3 -0.795609 -3 0 
C -3 0.795609 -2.683901 1.55874 -2.12132 2.12132 
C -1.55874 2.683901 -0.795609 3 0 3 
z
" style="stroke: #ff7f0e"/>
    </defs>
    <g clip-path="url(#p2f66c32e72)">
     <use xlink:href="#m11b1c07a9f" x="73.832727" y="295.152955" style="fill: #ff7f0e; stroke: #ff7f0e"/>
     <use xlink:href="#m11b1c07a9f" x="109.905455" y="289.243619" style="fill: #ff7f0e; stroke: #ff7f0e"/>
     <use xlink:href="#m11b1c07a9f" x="145.978182" y="279.03659" style="fill: #ff7f0e; stroke: #ff7f0e"/>
     <use xlink:href="#m11b1c07a9f" x="182.050909" y="264.542122" style="fill: #ff7f0e; stroke: #ff7f0e"/>
     <use xlink:href="#m11b1c07a9f" x="218.123636" y="245.650138" style="fill: #ff7f0e; stroke: #ff7f0e"/>
     <use xlink:href="#m11b1c07a9f" x="254.196364" y="222.66808" style="fill: #ff7f0e; stroke: #ff7f0e"/>
     <use xlink:href="#m11b1c07a9f" x="290.269091" y="195.723469" style="fill: #ff7f0e; stroke: #ff7f0e"/>
     <use xlink:href="#m11b1c07a9f" x="326.341818" y="164.751393" style="fill: #ff7f0e; stroke: #ff7f0e"/>
     <use xlink:href="#m11b1c07a9f" x="362.414545" y="129.339827" style="fill: #ff7f0e; stroke: #ff7f0e"/>
    </g>
   </g>
   <g id="line2d_17">
    <path d="M 73.832727 292.57704 
L 109.905455 284.277631 
L 145.978182 270.961002 
L 182.050909 253.224561 
L 218.123636 231.056594 
L 254.196364 204.441592 
L 290.269091 173.374261 
L 326.341818 137.875242 
L 362.414545 97.958925 
L 398.487273 53.568 
" clip-path="url(#p2f66c32e72)" style="fill: none; stroke: #2ca02c; stroke-width: 1.5; stroke-linecap: square"/>
    <defs>
     <path id="m8ba0ca62c0" d="M 0 3 
C 0.795609 3 1.55874 2.683901 2.12132 2.12132 
C 2.683901 1.55874 3 0.795609 3 0 
C 3 -0.795609 2.683901 -1.55874 2.12132 -2.12132 
C 1.55874 -2.683901 0.795609 -3 0 -3 
C -0.795609 -3 -1.55874 -2.683901 -2.12132 -2.12132 
C -2.683901 -1.55874 -3 -0.795609 -3 0 
C -3 0.795609 -2.683901 1.55874 -2.12132 2.12132 
C -1.55874 2.683901 -0.795609 3 0 3 
z
" style="stroke: #2ca02c"/>
    </defs>
    <g clip-path="url(#p2f66c32e72)">
     <use xlink:href="#m8ba0ca62c0" x="73.832727" y="292.57704" style="fill: #2ca02c; stroke: #2ca02c"/>
     <use xlink:href="#m8ba0ca62c0" x="109.905455" y="284.277631" style="fill: #2ca02c; stroke: #2ca02c"/>
     <use xlink:href="#m8ba0ca62c0" x="145.978182" y="270.961002" style="fill: #2ca02c; stroke: #2ca02c"/>
     <use xlink:href="#m8ba0ca62c0" x="182.050909" y="253.224561" style="fill: #2ca02c; stroke: #2ca02c"/>
     <use xlink:href="#m8ba0ca62c0" x="218.123636" y="231.056594" style="fill: #2ca02c; stroke: #2ca02c"/>
     <use xlink:href="#m8ba0ca62c0" x="254.196364" y="204.441592" style="fill: #2ca02c; stroke: #2ca02c"/>
     <use xlink:href="#m8ba0ca62c0" x="290.269091" y="173.374261" style="fill: #2ca02c; stroke: #2ca02c"/>
     <use xlink:href="#m8ba0ca62c0" x="326.341818" y="137.875242" style="fill: #2ca02c; stroke: #2ca02c"/>
     <use xlink:href="#m8ba0ca62c0" x="362.414545" y="97.958925" style="fill: #2ca02c; stroke: #2ca02c"/>
     <use xlink:href="#m8ba0ca62c0" x="398.487273" y="53.568" style="fill: #2ca02c; stroke: #2ca02c"/>
    </g>
   </g>
   <g id="line2d_18">
    <path d="M 73.832727 294.602364 
L 109.905455 287.362703 
L 145.978182 276.326636 
L 182.050909 259.640103 
L 218.123636 237.391391 
L 254.196364 210.993119 
L 290.269091 179.209245 
L 326.341818 143.099233 
L 362.414545 102.309929 
L 398.487273 56.046735 
" clip-path="url(#p2f66c32e72)" style="fill: none; stroke-dasharray: 1.5,2.475; stroke-dashoffset: 0; stroke: #0000ff; stroke-width: 1.5"/>
    <defs>
     <path id="m7286f859bb" d="M 0 3 
C 0.795609 3 1.55874 2.683901 2.12132 2.12132 
C 2.683901 1.55874 3 0.795609 3 0 
C 3 -0.795609 2.683901 -1.55874 2.12132 -2.12132 
C 1.55874 -2.683901 0.795609 -3 0 -3 
C -0.795609 -3 -1.55874 -2.683901 -2.12132 -2.12132 
C -2.683901 -1.55874 -3 -0.795609 -3 0 
C -3 0.795609 -2.683901 1.55874 -2.12132 2.12132 
C -1.55874 2.683901 -0.795609 3 0 3 
z
" style="stroke: #0000ff"/>
    </defs>
    <g clip-path="url(#p2f66c32e72)">
     <use xlink:href="#m7286f859bb" x="73.832727" y="294.602364" style="fill: #0000ff; stroke: #0000ff"/>
     <use xlink:href="#m7286f859bb" x="109.905455" y="287.362703" style="fill: #0000ff; stroke: #0000ff"/>
     <use xlink:href="#m7286f859bb" x="145.978182" y="276.326636" style="fill: #0000ff; stroke: #0000ff"/>
     <use xlink:href="#m7286f859bb" x="182.050909" y="259.640103" style="fill: #0000ff; stroke: #0000ff"/>
     <use xlink:href="#m7286f859bb" x="218.123636" y="237.391391" style="fill: #0000ff; stroke: #0000ff"/>
     <use xlink:href="#m7286f859bb" x="254.196364" y="210.993119" style="fill: #0000ff; stroke: #0000ff"/>
     <use xlink:href="#m7286f859bb" x="290.269091" y="179.209245" style="fill: #0000ff; stroke: #0000ff"/>
     <use xlink:href="#m7286f859bb" x="326.341818" y="143.099233" style="fill: #0000ff; stroke: #0000ff"/>
     <use xlink:href="#m7286f859bb" x="362.414545" y="102.309929" style="fill: #0000ff; stroke: #0000ff"/>
     <use xlink:href="#m7286f859bb" x="398.487273" y="56.046735" style="fill: #0000ff; stroke: #0000ff"/>
    </g>
   </g>
   <g id="line2d_19">
    <path d="M 73.832727 295.132095 
L 109.905455 288.069012 
L 145.978182 276.768079 
L 182.050909 259.81668 
L 218.123636 238.450854 
L 254.196364 212.229158 
L 290.269091 181.32817 
L 326.341818 145.747889 
L 362.414545 105.664893 
L 398.487273 60.372873 
" clip-path="url(#p2f66c32e72)" style="fill: none; stroke-dasharray: 1.5,2.475; stroke-dashoffset: 0; stroke: #0000ff; stroke-width: 1.5"/>
    <g clip-path="url(#p2f66c32e72)">
     <use xlink:href="#m7286f859bb" x="73.832727" y="295.132095" style="fill: #0000ff; stroke: #0000ff"/>
     <use xlink:href="#m7286f859bb" x="109.905455" y="288.069012" style="fill: #0000ff; stroke: #0000ff"/>
     <use xlink:href="#m7286f859bb" x="145.978182" y="276.768079" style="fill: #0000ff; stroke: #0000ff"/>
     <use xlink:href="#m7286f859bb" x="182.050909" y="259.81668" style="fill: #0000ff; stroke: #0000ff"/>
     <use xlink:href="#m7286f859bb" x="218.123636" y="238.450854" style="fill: #0000ff; stroke: #0000ff"/>
     <use xlink:href="#m7286f859bb" x="254.196364" y="212.229158" style="fill: #0000ff; stroke: #0000ff"/>
     <use xlink:href="#m7286f859bb" x="290.269091" y="181.32817" style="fill: #0000ff; stroke: #0000ff"/>
     <use xlink:href="#m7286f859bb" x="326.341818" y="145.747889" style="fill: #0000ff; stroke: #0000ff"/>
     <use xlink:href="#m7286f859bb" x="362.414545" y="105.664893" style="fill: #0000ff; stroke: #0000ff"/>
     <use xlink:href="#m7286f859bb" x="398.487273" y="60.372873" style="fill: #0000ff; stroke: #0000ff"/>
    </g>
   </g>
   <g id="line2d_20">
    <path d="M 73.832727 294.514075 
L 109.905455 287.097838 
L 145.978182 275.796905 
L 182.050909 258.757217 
L 218.123636 237.303103 
L 254.196364 210.110233 
L 290.269091 178.414648 
L 326.341818 142.128059 
L 362.414545 100.985601 
L 398.487273 54.810696 
" clip-path="url(#p2f66c32e72)" style="fill: none; stroke-dasharray: 1.5,2.475; stroke-dashoffset: 0; stroke: #0000ff; stroke-width: 1.5"/>
    <g clip-path="url(#p2f66c32e72)">
     <use xlink:href="#m7286f859bb" x="73.832727" y="294.514075" style="fill: #0000ff; stroke: #0000ff"/>
     <use xlink:href="#m7286f859bb" x="109.905455" y="287.097838" style="fill: #0000ff; stroke: #0000ff"/>
     <use xlink:href="#m7286f859bb" x="145.978182" y="275.796905" style="fill: #0000ff; stroke: #0000ff"/>
     <use xlink:href="#m7286f859bb" x="182.050909" y="258.757217" style="fill: #0000ff; stroke: #0000ff"/>
     <use xlink:href="#m7286f859bb" x="218.123636" y="237.303103" style="fill: #0000ff; stroke: #0000ff"/>
     <use xlink:href="#m7286f859bb" x="254.196364" y="210.110233" style="fill: #0000ff; stroke: #0000ff"/>
     <use xlink:href="#m7286f859bb" x="290.269091" y="178.414648" style="fill: #0000ff; stroke: #0000ff"/>
     <use xlink:href="#m7286f859bb" x="326.341818" y="142.128059" style="fill: #0000ff; stroke: #0000ff"/>
     <use xlink:href="#m7286f859bb" x="362.414545" y="100.985601" style="fill: #0000ff; stroke: #0000ff"/>
     <use xlink:href="#m7286f859bb" x="398.487273" y="54.810696" style="fill: #0000ff; stroke: #0000ff"/>
    </g>
   </g>
   <g id="patch_3">
    <path d="M 57.6 307.584 
L 57.6 41.472 
" style="fill: none; stroke: #000000; stroke-width: 0.8; stroke-linejoin: miter; stroke-linecap: square"/>
   </g>
   <g id="patch_4">
    <path d="M 414.72 307.584 
L 414.72 41.472 
" style="fill: none; stroke: #000000; stroke-width: 0.8; stroke-linejoin: miter; stroke-linecap: square"/>
   </g>
   <g id="patch_5">
    <path d="M 57.6 307.584 
L 414.72 307.584 
" style="fill: none; stroke: #000000; stroke-width: 0.8; stroke-linejoin: miter; stroke-linecap: square"/>
   </g>
   <g id="patch_6">
    <path d="M 57.6 41.472 
L 414.72 41.472 
" style="fill: none; stroke: #000000; stroke-width: 0.8; stroke-linejoin: miter; stroke-linecap: square"/>
   </g>
  </g>
 </g>
 <defs>
  <clipPath id="p2f66c32e72">
   <rect x="57.6" y="41.472" width="357.12" height="266.112"/>
  </clipPath>
 </defs>
</svg>
